<svg version="1.2" baseProfile="tiny-ps"
	xmlns="http://www.w3.org/2000/svg" viewBox="0 0 962 138" width="962" height="138">
	<title>Layer 1</title>
	<style>
		tspan { white-space:pre }
		.shp0 { fill: #FFC629 }
	</style>
	<g id="Layer 1">
		<g id="&lt;Group&gt;">
			<path id="&lt;Compound Path&gt; copy 2" fill-rule="evenodd" class="shp0" d="M961.37 0.16L961.37 80.83L944.83 81.82C943.77 80.1 942.5 78.46 941 76.97C930.64 66.61 913.84 66.61 903.48 76.97C901.2 79.25 899.42 81.84 898.15 84.61L588.5 103.11C587.78 94.33 580.43 87.43 571.46 87.43C562.01 87.43 554.35 95.08 554.35 104.53C554.35 104.74 554.36 104.94 554.37 105.15L170.54 128.08C165.06 119.16 155.21 113.21 143.98 113.21C131.42 113.21 120.6 120.65 115.67 131.36L0.63 138.23L0.63 33.87C3.81 34.81 7.18 35.33 10.67 35.33C30.09 35.33 45.84 19.58 45.84 0.16L331.91 0.16C334.82 8.31 342.6 14.15 351.76 14.15C360.91 14.15 368.69 8.31 371.6 0.16L758.31 0.16C757.79 1.69 757.5 3.32 757.5 5.03C757.5 13.34 764.25 20.09 772.56 20.09C780.88 20.09 787.62 13.34 787.62 5.03C787.62 3.32 787.33 1.69 786.81 0.16L961.37 0.16ZM286.32 100.06C286.32 93.08 280.66 87.43 273.68 87.43C266.7 87.43 261.04 93.08 261.04 100.06C261.04 107.04 266.7 112.7 273.68 112.7C280.66 112.7 286.32 107.04 286.32 100.06Z" />
			<path id="&lt;Path&gt; copy" class="shp0" d="M809.31 86.73C805.05 85.88 802.67 90.15 802.16 99.53C801.39 113.6 791.82 113.03 789.01 115.08C786.2 117.12 789.26 127.59 780.97 132.69C772.67 137.8 763.73 126.44 761.94 121.59C760.16 116.73 749.18 114.82 747.14 133.59C745.09 152.35 751.6 166.65 755.05 176.22C758.5 185.8 756.33 200.99 743.45 199.2C730.58 197.42 732.58 182.1 734.63 175.84C736.67 169.59 742.92 152.1 743.31 139.2C743.69 126.31 744.07 109.71 734.24 111.25C724.41 112.78 733.6 127.59 722.24 127.84C710.88 128.1 715.48 118.14 713.05 109.71C710.63 101.29 703.35 101.03 695.56 102.05C687.77 103.08 688.29 115.97 679.35 117.88C670.41 119.8 667.6 112.01 659.69 109.33C651.77 106.65 647.31 113.42 647.94 122.35C648.58 131.29 655.48 139.84 652.8 147.88C650.11 155.93 635.05 152.22 639.26 138.44C643.48 124.65 644.24 123.12 642.33 110.1C641.05 101.42 631.6 97.97 613.99 99.76" />
		</g>
	</g>
</svg>