<svg version="1.2" baseProfile="tiny-ps" xmlns="http://www.w3.org/2000/svg" viewBox="0 0 218 138" width="218" height="138">
	<title>Layer 1</title>
	<style>
		tspan { white-space:pre }
		.shp0 { fill: #ffc550 } 
		.shp1 { fill: #ffd576 } 
	</style>
	<g id="Layer 1">
		<g id="&lt;Group&gt;">
			<path id="&lt;Path&gt;" class="shp0" d="M33.76 67.44C63.89 79.67 97.59 86.97 130.24 83.95C148.21 82.29 163.75 82.63 180.87 76.06C189.23 72.86 198.85 70.22 205.06 63.39C209.51 58.48 211.23 51.63 216.03 47.42C215.83 58.8 216.26 77.59 216.55 87.89C216.7 92.85 214.89 97.71 211.38 101.22C180.79 131.85 129.92 141.53 89.82 136.66C70.04 134.26 1.05 117.52 1.05 89.87C1.05 89.79 1.05 75.64 1.05 47.42C4.66 57.51 25.16 63.95 33.76 67.44Z" />
		</g>
		<g id="&lt;Group&gt;">
			<path id="&lt;Path&gt;" class="shp1" d="M167.8 11.31C170.06 12.02 170.34 15.09 168.26 16.19L121.18 41.1L213.78 40.29C215.01 40.28 216.12 41.11 216.39 42.32C217.47 47.16 216.47 52.62 212.33 58.61C209.46 62.78 205.63 66.22 201.32 68.88C164.74 91.52 113.98 95.11 72.49 90.36C53.21 88.15 36.74 81.19 19.76 71.8C11.69 67.35 3.8 60.88 1.82 51.88C0.22 44.59 2.92 36.83 7.57 31C12.23 25.16 18.65 21.01 25.26 17.53C55 1.91 90.63 -1.97 125.25 2.16C139.79 3.89 154.14 7.03 167.8 11.31Z" />
		</g>
	</g>
</svg>