<svg version="1.2" baseProfile="tiny-ps" xmlns="http://www.w3.org/2000/svg" viewBox="0 0 138 102" width="138" height="102">
	<title>Layer 1</title>
	<style>
		tspan { white-space:pre }
		.shp0 { fill: #ffb237 } 
		.shp1 { fill: #ffc550 } 
		.shp2 { fill: #ffd576 } 
		.shp3 { fill: #fddf91 } 
	</style>
	<g id="Layer 1">
		<g id="&lt;Group&gt;">
			<g id="&lt;Group&gt;">
				<g id="&lt;Group&gt;">
					<path id="&lt;Path&gt;" class="shp0" d="M77.66 28.45L77.66 101.03C77.61 101.06 77.56 101.09 77.51 101.12L3.68 63.97C1.8 59.94 0.58 17.96 1.09 13.31C1.97 5.22 52.83 23.76 77.66 28.45Z" />
				</g>
				<g id="&lt;Group&gt;">
					<path id="&lt;Path&gt;" class="shp1" d="M137.75 64.26C135.68 64.49 105.85 83.44 77.66 101.03L77.66 28.45C83.9 29.63 88.5 29.93 90.24 28.72C101.77 20.65 115.38 17.79 128.49 13.64C134.8 11.65 131.85 9 137.75 12.97C137.8 29.65 137.75 49.18 137.75 64.26Z" />
				</g>
				<g id="&lt;Group&gt;">
					<path id="&lt;Path&gt;" class="shp2" d="M45.91 1.23C49.56 0.8 53.23 0.47 56.92 0.25C55.59 2.98 54.73 5.94 54.45 8.97C53.59 21.87 55.9 34.77 61.8 46.29L17.24 22.08C17.21 22.01 17.17 21.94 17.13 21.86C16.89 21.38 16.67 20.88 16.44 20.39C16.31 20.12 16.18 19.85 16.06 19.58C15.72 18.83 15.4 18.07 15.08 17.3C15.07 17.27 15.05 17.24 15.04 17.21C14.87 16.81 14.72 16.41 14.59 16.02C14.45 15.63 14.33 15.24 14.23 14.85C14.02 14.08 13.88 13.33 13.79 12.59C13.75 12.22 13.72 11.85 13.7 11.49C13.69 11.12 13.69 10.76 13.7 10.41C13.71 10.05 13.74 9.7 13.77 9.35C13.81 9 13.86 8.65 13.92 8.31C13.93 8.31 13.93 8.31 13.93 8.3C15.46 7.79 17 7.32 18.55 6.85C18.94 6.74 19.33 6.62 19.73 6.51C21.17 6.09 22.62 5.68 24.08 5.31C24.19 5.28 24.3 5.25 24.42 5.22C26.03 4.81 27.65 4.42 29.28 4.06C29.58 3.99 29.88 3.93 30.17 3.87C31.72 3.53 33.28 3.21 34.84 2.92C34.92 2.91 35 2.89 35.08 2.88C36.81 2.56 38.55 2.26 40.3 2C40.42 1.98 40.55 1.96 40.68 1.94C42.4 1.68 44.13 1.45 45.87 1.24C45.88 1.24 45.89 1.24 45.91 1.23Z" />
				</g>
				<g id="&lt;Group&gt;">
					<path id="&lt;Compound Path&gt;" fill-rule="evenodd" class="shp3" d="M138.23 12.88C138.33 13.87 137.88 14.92 136.84 15.47L98.87 40.29L77.04 54.57L61.8 46.29C55.9 34.77 53.59 21.87 54.45 8.97C54.73 5.94 55.59 2.98 56.92 0.25C58.18 0.18 59.45 0.12 60.72 0.07C60.89 0.06 61.06 0.05 61.22 0.05C62.33 0 63.44 -0.03 64.55 -0.05C65.14 -0.06 65.74 -0.07 66.33 -0.07C67.16 -0.08 67.98 -0.09 68.81 -0.09C68.83 -0.09 68.85 -0.09 68.87 -0.09C70.37 -0.09 71.87 -0.08 73.38 -0.04C73.39 -0.04 73.4 -0.04 73.41 -0.04C73.42 -0.04 73.42 -0.04 73.43 -0.04C75.08 0 76.73 0.06 78.38 0.14C78.52 0.15 78.66 0.16 78.8 0.16C80.34 0.24 81.87 0.33 83.41 0.44C83.52 0.45 83.62 0.45 83.72 0.46C85.25 0.57 86.78 0.7 88.31 0.85C88.63 0.88 88.95 0.91 89.27 0.94C90.79 1.09 92.31 1.25 93.83 1.43C102.91 2.52 111.93 4.15 120.75 6.27C122.51 6.69 124.26 7.13 126.01 7.6C129.51 8.52 132.97 9.52 136.38 10.59C137.51 10.94 138.14 11.89 138.23 12.88ZM113.3 27.92L89.76 40.37L89.76 40.37L113.3 27.92Z" />
				</g>
			</g>
		</g>
	</g>
</svg>