<svg version="1.2" baseProfile="tiny-ps"
	xmlns="http://www.w3.org/2000/svg" viewBox="0 0 240 70" width="240" height="70">
	<title>Layer 1</title>
	<style>
		tspan { white-space:pre }
		.shp0 { fill: none;stroke: #FFC629;stroke-width: 1.5 }
	</style>
	<g id="Layer 1">
		<path id="&lt;Compound Path&gt;" fill-rule="evenodd" class="shp0" d="M225.23 34.91C225.23 41.01 230.18 45.96 236.29 45.96C237.27 45.96 238.21 45.84 239.12 45.6L239.12 56.26C239.12 63.03 233.63 68.52 226.86 68.52L140.22 68.52C140.15 68.4 140.07 68.29 140 68.18C138.85 68.53 137.62 68.73 136.35 68.73L49.71 68.73C47.76 65.47 44.19 63.29 40.12 63.29C36.05 63.29 32.48 65.47 30.53 68.73L13.14 68.73C6.37 68.73 0.88 63.24 0.88 56.47L0.88 13.76C0.88 6.99 6.37 1.5 13.14 1.5L13.74 1.5C13.35 2.63 13.14 3.84 13.14 5.1C13.14 11.28 18.15 16.28 24.32 16.28C30.5 16.28 35.51 11.28 35.51 5.1C35.51 3.84 35.3 2.63 34.91 1.5L103.76 1.5C103.58 2.12 103.48 2.77 103.48 3.45C103.48 3.96 103.54 4.46 103.65 4.95C104.34 8.07 107.12 10.41 110.44 10.41C114.29 10.41 117.41 7.29 117.41 3.45C117.41 2.77 117.31 2.12 117.13 1.5L125.48 1.5C125.46 1.43 125.44 1.36 125.42 1.29L194.27 1.29C194.09 1.91 193.99 2.56 193.99 3.24C193.99 7.08 197.11 10.2 200.95 10.2C204.8 10.2 207.91 7.08 207.91 3.24C207.91 2.56 207.82 1.91 207.64 1.29L226.86 1.29C233.63 1.29 239.12 6.78 239.12 13.55L239.12 24.22C238.21 23.98 237.27 23.85 236.29 23.85C230.18 23.85 225.23 28.8 225.23 34.91ZM18.15 54.73C18.15 53.11 16.84 51.79 15.22 51.79C13.59 51.79 12.28 53.11 12.28 54.73C12.28 56.35 13.59 57.67 15.22 57.67C16.84 57.67 18.15 56.35 18.15 54.73ZM110.44 57.67C110.44 60.67 112.88 63.1 115.88 63.1C118.88 63.1 121.31 60.67 121.31 57.67C121.31 54.67 118.88 52.24 115.88 52.24C112.88 52.24 110.44 54.67 110.44 57.67ZM71.65 12.62C71.65 10.37 69.83 8.54 67.57 8.54C65.32 8.54 63.5 10.37 63.5 12.62C63.5 14.87 65.32 16.69 67.57 16.69C69.83 16.69 71.65 14.87 71.65 12.62ZM162.16 12.41C162.16 10.16 160.33 8.34 158.08 8.34C155.83 8.34 154.01 10.16 154.01 12.41C154.01 14.66 155.83 16.49 158.08 16.49C160.33 16.49 162.16 14.66 162.16 12.41ZM211.82 57.46C211.82 54.46 209.39 52.03 206.39 52.03C203.38 52.03 200.95 54.46 200.95 57.46C200.95 60.46 203.38 62.9 206.39 62.9C209.39 62.9 211.82 60.46 211.82 57.46Z" />
	</g>
</svg>