<svg version="1.2" baseProfile="tiny-ps"
	xmlns="http://www.w3.org/2000/svg" viewBox="0 0 78 71" width="78" height="71">
	<title>Layer 1</title>
	<style>
		tspan { white-space:pre }
		.shp0 { fill: #FFC629 }
	</style>
	<g id="Layer 1">
		<g id="&lt;Group&gt;">
			<g id="&lt;Group&gt;">
				<path id="&lt;Compound Path&gt;" fill-rule="evenodd" class="shp0" d="M0.21 42.97C0.2 38.38 0.62 34.06 1.49 29.78C2.5 24.85 4.08 20.11 6.2 15.55C7.81 12.07 9.69 8.74 11.81 5.55C11.94 5.35 12.1 5.21 12.32 5.12C16.96 3.01 21.77 1.47 26.77 0.53C27.01 0.49 27.25 0.46 27.48 0.39C27.87 0.26 28.06 0.42 28.24 0.76C28.84 1.89 29.42 3.02 29.93 4.2C30.02 4.41 30.12 4.5 30.36 4.46C33.58 3.96 36.82 3.78 40.07 3.84C42.49 3.89 44.9 4.08 47.29 4.45C47.62 4.5 47.78 4.42 47.91 4.1C48.4 2.92 48.97 1.78 49.58 0.65C49.71 0.4 49.86 0.31 50.15 0.37C55.5 1.32 60.64 2.93 65.58 5.18C65.72 5.25 65.81 5.35 65.9 5.48C67.81 8.32 69.54 11.27 71.04 14.35C73.08 18.56 74.68 22.93 75.78 27.48C76.62 30.97 77.16 34.51 77.41 38.08C77.58 40.37 77.61 42.67 77.53 44.96C77.48 46.42 77.41 47.88 77.25 49.33C77.23 49.55 77.15 49.69 76.98 49.81C73.04 52.69 68.84 55.14 64.36 57.07C62.27 57.97 60.12 58.75 57.95 59.44C57.74 59.51 57.58 59.51 57.44 59.31C56.02 57.32 54.74 55.23 53.62 53.06C53.45 52.75 53.52 52.66 53.93 52.5C55.87 51.76 57.74 50.87 59.53 49.82C59.94 49.58 59.95 49.47 59.57 49.18C59.29 48.96 59 48.75 58.74 48.51C58.53 48.33 58.34 48.31 58.08 48.43C56.08 49.36 54.01 50.14 51.88 50.77C48.52 51.78 45.08 52.41 41.57 52.61C36.87 52.88 32.23 52.43 27.67 51.26C24.92 50.55 22.25 49.62 19.67 48.44C19.41 48.32 19.21 48.31 18.98 48.52C18.71 48.77 18.41 48.98 18.12 49.21C17.8 49.47 17.8 49.59 18.15 49.79C19.65 50.66 21.21 51.43 22.81 52.11C23.16 52.26 23.52 52.4 23.87 52.53C24.23 52.67 24.27 52.76 24.1 53.1C23.42 54.45 22.66 55.75 21.85 57.03C21.37 57.78 20.85 58.52 20.33 59.26C20.18 59.47 20.02 59.52 19.78 59.44C17.51 58.72 15.27 57.89 13.09 56.94C9.42 55.32 5.93 53.37 2.63 51.11C2.01 50.69 1.41 50.24 0.79 49.82C0.6 49.69 0.51 49.52 0.5 49.31C0.42 48.13 0.34 46.96 0.28 45.79C0.22 44.78 0.19 43.76 0.21 42.97ZM51.58 40.68C53.78 40.66 55.43 39.85 56.73 38.34C58.25 36.58 58.82 34.49 58.68 32.19C58.55 30.16 57.8 28.42 56.35 26.98C53.58 24.24 49.25 24.45 46.75 27.45C44.41 30.25 44.15 34.42 46.16 37.47C47.48 39.47 49.32 40.62 51.58 40.68ZM33.01 33.04C33 30.98 32.49 29.3 31.39 27.81C28.86 24.42 24.17 24.11 21.3 27.16C18.31 30.33 18.4 35.65 21.49 38.73C23.98 41.2 27.69 41.36 30.3 39.06C32.17 37.41 32.97 35.27 33.01 33.04Z" />
				<path id="&lt;Path&gt;" class="shp0" d="M28.74 54.35C32.55 55.37 36.42 55.48 37.6 55.49L37.6 70.02C31.5 71.66 25.39 69.73 23.96 69.23L28.74 54.35Z" />
				<path id="&lt;Path&gt;" class="shp0" d="M49.45 54.52L53.23 65.81C52.04 66.43 46.77 68.87 40.61 67.35L40.61 55.45C41.71 55.44 45.22 55.34 49.45 54.52Z" />
			</g>
		</g>
	</g>
</svg>