<svg version="1.2" baseProfile="tiny-ps" xmlns="http://www.w3.org/2000/svg" viewBox="0 0 66 60" width="66" height="60">
	<title>Layer 1</title>
	<style>
		tspan { white-space:pre }
		.shp0 { fill: #000000 } 
	</style>
	<g id="Layer 1">
		<g id="&lt;Group&gt;">
			<path id="&lt;Compound Path&gt;" fill-rule="evenodd" class="shp0" d="M0.04 35.97C0.03 32.12 0.38 28.5 1.12 24.92C1.96 20.8 3.28 16.83 5.06 13.01C6.41 10.1 7.98 7.31 9.75 4.64C9.86 4.47 9.99 4.36 10.18 4.28C14.06 2.52 18.09 1.23 22.28 0.44C22.47 0.4 22.68 0.38 22.87 0.32C23.19 0.21 23.36 0.35 23.5 0.63C24.01 1.58 24.49 2.53 24.92 3.51C24.99 3.69 25.08 3.76 25.28 3.73C27.97 3.31 30.68 3.16 33.41 3.21C35.43 3.25 37.45 3.41 39.45 3.72C39.73 3.76 39.86 3.69 39.97 3.43C40.38 2.44 40.86 1.48 41.36 0.54C41.47 0.33 41.6 0.26 41.84 0.3C46.32 1.1 50.62 2.45 54.75 4.33C54.88 4.39 54.95 4.48 55.02 4.58C56.63 6.96 58.07 9.43 59.33 12.01C61.03 15.53 62.37 19.19 63.29 23C64 25.92 64.45 28.88 64.66 31.87C64.8 33.79 64.83 35.71 64.76 37.63C64.72 38.85 64.66 40.07 64.53 41.29C64.51 41.47 64.44 41.58 64.3 41.69C61 44.1 57.49 46.15 53.74 47.76C51.98 48.52 50.19 49.17 48.37 49.75C48.2 49.81 48.06 49.8 47.94 49.64C46.75 47.97 45.69 46.23 44.74 44.41C44.61 44.15 44.66 44.07 45.01 43.94C46.63 43.32 48.2 42.57 49.7 41.7C50.04 41.5 50.04 41.41 49.73 41.16C49.5 40.98 49.25 40.8 49.03 40.6C48.85 40.45 48.7 40.43 48.48 40.53C46.8 41.32 45.07 41.96 43.29 42.5C40.48 43.34 37.6 43.86 34.66 44.03C30.73 44.25 26.85 43.88 23.03 42.9C20.72 42.31 18.49 41.53 16.33 40.54C16.11 40.44 15.94 40.44 15.76 40.61C15.53 40.82 15.27 40.99 15.03 41.19C14.76 41.4 14.77 41.5 15.06 41.67C16.32 42.4 17.62 43.04 18.96 43.61C19.25 43.74 19.55 43.85 19.85 43.97C20.15 44.09 20.18 44.16 20.04 44.44C19.47 45.57 18.84 46.66 18.16 47.73C17.75 48.36 17.32 48.98 16.89 49.59C16.76 49.78 16.63 49.82 16.42 49.75C14.52 49.14 12.65 48.45 10.82 47.65C7.75 46.3 4.83 44.67 2.07 42.78C1.55 42.42 1.05 42.05 0.53 41.69C0.37 41.58 0.3 41.45 0.28 41.27C0.22 40.28 0.15 39.3 0.1 38.32C0.05 37.48 0.03 36.63 0.04 35.97ZM43.04 34.05C44.88 34.03 46.26 33.35 47.35 32.09C48.62 30.61 49.1 28.87 48.98 26.94C48.87 25.24 48.24 23.78 47.03 22.58C44.71 20.29 41.09 20.46 39 22.97C37.04 25.32 36.82 28.81 38.51 31.36C39.61 33.03 41.15 33.99 43.04 34.05ZM27.5 27.65C27.49 25.92 27.06 24.52 26.14 23.28C24.02 20.43 20.1 20.18 17.7 22.73C15.2 25.39 15.27 29.83 17.86 32.41C19.94 34.49 23.04 34.61 25.23 32.69C26.8 31.31 27.46 29.52 27.5 27.65Z" />
			<path id="&lt;Path&gt;" class="shp0" d="M23.92 45.49C27.11 46.34 30.35 46.44 31.34 46.44L31.34 58.6C26.23 59.98 21.12 58.36 19.92 57.94L23.92 45.49Z" />
			<path id="&lt;Path&gt;" class="shp0" d="M41.25 45.63L44.42 55.08C43.42 55.6 39.02 57.64 33.85 56.37L33.85 46.41C34.78 46.4 37.72 46.32 41.25 45.63Z" />
		</g>
	</g>
</svg>