<svg id="Layer_1" data-name="Layer 1"
	xmlns="http://www.w3.org/2000/svg" viewBox="0 0 1921.48 276.15">
	<defs>
		<style>.cls-1{fill:#ffc629;}.cls-2{fill:none;stroke:#ffc629;stroke-miterlimit:10;stroke-width:3px;}</style>
	</defs>
	<path class="cls-1" d="M1690.65,10522.28a62.3,62.3,0,0,1-109.72,6.55l-767.66,45.87c0,.41,0,.82,0,1.24a34.21,34.21,0,0,1-68.3,2.84l-482.17,28.8a101.49,101.49,0,0,1-198.44,11.86l-65.13,3.89v161.35H348.38a30.12,30.12,0,1,1,57,0H1178.8a42.13,42.13,0,0,1,79.37,0h572.16a70.35,70.35,0,0,1,90.41-67.42v-208.73Z" transform="translate(0.74 -10508.53)"/>
	<circle cx="1375.38" cy="76.34" r="25.27"/>
	<path d="M1555.05,10647a3.16,3.16,0,0,0-1.71-.32,37.66,37.66,0,0,1-4.24-2.41c8.24-9.15,14.48-25.15,9-36.21-5.52-11.22-15.83-4.42-21.85,2.56-.87-.81-3-2-4.93-3.31l-.41-3.54s-3.39,1.43-3.45,1.37l-1.45-3.54c-1,.06-8.31,5.88-10.74,8a33.39,33.39,0,0,0-12.2,7.17c-3.34-6.17-8.39-12.08-15.53-13-6.62-.85-11.63,3.71-13.74,9.64-4.8,13.43,2.7,35.22,17.42,39.24.22.47,1,6.26,3.48,7.16.85.31,0-1.94,3-2.41a1.87,1.87,0,0,1,1.75.85c2.23,4.56,5.79,7.6,10.41,9.91l-.3,4.11c-7.51,2.36-14.16,7.45-17.5,14.76-3.07,6.75-1.68,14.12-2.1,21.29h63.37c.41-15.54-1.53-31-17.72-35.57l.42-4.48c5.75.65,12.34-3.54,17.78-4.58C1564.34,10661.69,1566,10649.42,1555.05,10647Z" transform="translate(0.74 -10508.53)"/>
	<path d="M1592.47,10694.53v13.82h-5.39l1-5.76-4.74,3.39-5.53-3.71-1,6.08h-4.31v-13.82H1578l-.08,0,6.52,7.11,5.06-5.41.29-1.74Z" transform="translate(0.74 -10508.53)"/>
	<path d="M1594.47,10698.48h14.37v9.87h-14.37Zm4.38,8.31,6.62-1.18-1-5.69-6.62,1.17Z" transform="translate(0.74 -10508.53)"/>
	<path d="M1625.22,10698.48v9.87h-14.38v-9.87h2.92l1.46,8.31,6.62-1.18-1.26-7.13Z" transform="translate(0.74 -10508.53)"/>
	<path d="M1641.59,10698.48v1.42l-8.29,1.46.25,1.48,8-1.4v6.91h-14.38v-1.16l8.3-1.46-.26-1.48-8,1.42v-7.19Z" transform="translate(0.74 -10508.53)"/>
	<path d="M1658,10698.48v4.9l-11.35,2,.27,1.6L1658,10705v3.33h-14.37v-9.87Zm-11.69,5.21,6.62-1.18-.24-1.25-6.58,1.17Z" transform="translate(0.74 -10508.53)"/>
	<path d="M1683.31,10694.53v5.77l-6.27-1.09-1.62,9.14h-4.28l1.76-9.89-8-1.4v-2.53Z" transform="translate(0.74 -10508.53)"/>
	<path d="M1699.68,10698.48v3l-2.11.4-.3-1.59-7.58,1.33,1.18,6.69h-5.57v-9.87Z" transform="translate(0.74 -10508.53)"/>
	<path d="M1716.05,10698.48v9.87h-14.38v-4.89l11.36-2-.28-1.6-11.08,2v-3.34Zm-9.06,7.09,6.59-1.17-.23-1.26-6.58,1.19Z" transform="translate(0.74 -10508.53)"/>
	<path d="M1732.35,10698.48v5.45l-11.32,2,.43,2.42h-3.41v-9.87Zm-11.66,5.55,6-1.05-.36-1.95-6,1Z" transform="translate(0.74 -10508.53)"/>
	<path d="M1759.11,10694.53v13.82h-5.57l.73-4.14-9.26-1.64-1,5.78h-4.88v-13.82h7.31l-.91,5.21,9.26,1.64,1.21-6.85Z" transform="translate(0.74 -10508.53)"/>
	<path d="M1761.1,10698.48h14.38v9.87H1761.1Zm4.39,8.31,6.62-1.18-1-5.69-6.62,1.17Z" transform="translate(0.74 -10508.53)"/>
	<path d="M1791.86,10698.48v9.87h-14.38v-9.87h2.92l1.46,8.31,6.62-1.18-1.27-7.13Z" transform="translate(0.74 -10508.53)"/>
	<path d="M1808.23,10698.48v1.42l-8.3,1.46.26,1.48,8-1.4v6.91h-14.38v-1.16l8.3-1.46-.26-1.48-8,1.42v-7.19Z" transform="translate(0.74 -10508.53)"/>
	<path d="M1824.6,10698.48v4.9l-11.35,2,.27,1.6,11.08-1.95v3.33h-14.38v-9.87Zm-11.69,5.21,6.62-1.18-.24-1.25-6.58,1.17Z" transform="translate(0.74 -10508.53)"/>
	<path d="M1652.72,10634v55.31h-21.56l4.1-23.07-19,13.59-22.12-14.86-4.18,24.34h-17.23V10634H1595l-.31.16,26.07,28.44L1641,10641l1.19-7Z" transform="translate(0.74 -10508.53)"/>
	<path d="M1734.34,10634v23.07l-25-4.34-6.48,36.58h-17.14l7-39.58-32.07-5.61V10634Z" transform="translate(0.74 -10508.53)"/>
	<path d="M1822.19,10634v55.31h-22.28l2.92-16.59-37-6.56-4,23.15h-19.51V10634h29.23l-3.64,20.86,37.06,6.56,4.82-27.42Z" transform="translate(0.74 -10508.53)"/>
	<circle class="cls-2" cx="162.76" cy="84.4" r="75.57"/>
	<path class="cls-1" d="M180.19,10566.7c-.21,0-.42,0-.64,0a13,13,0,0,1-10.53-20.58l-7-12.88-53,97.54h42.26a15.31,15.31,0,0,1,30.61,0h33.18Zm-33.61,37.65a9.52,9.52,0,1,1,9.52-9.52A9.52,9.52,0,0,1,146.58,10604.35Zm44.88,15.92a4.76,4.76,0,1,1,4.76-4.76A4.76,4.76,0,0,1,191.46,10620.27Z" transform="translate(0.74 -10508.53)"/>
</svg>