<?xml version="1.0" encoding="utf-8"?>
<!-- Generator: Adobe Illustrator 26.2.1, SVG Export Plug-In . SVG Version: 6.00 Build 0)  -->
<svg version="1.1" xmlns="http://www.w3.org/2000/svg" xmlns:xlink="http://www.w3.org/1999/xlink" x="0px" y="0px"
	 viewBox="0 0 1921.5 276.1" style="enable-background:new 0 0 1921.5 276.1;" xml:space="preserve">
<style type="text/css">
	.st0{fill:#FFC629;}
	.st1{display:none;}
	.st2{fill:none;stroke:#FFC629;stroke-width:3;stroke-miterlimit:10;}
</style>
<g id="Layer_1">
	<path class="st0" d="M1691.4,13.8c-14.4,31.3-51.4,45-82.6,30.6c-11.2-5.2-20.6-13.5-27.1-24L814,66.2c0,0.4,0,0.8,0,1.2
		c0,18.9-15.3,34.2-34.2,34.2c-17.8,0-32.6-13.6-34.1-31.3L263.5,99c-8,55.5-59.5,93.9-115,85.9c-40.1-5.8-72.9-34.9-83.5-74
		L0,114.8v161.3h349.1c-5.4-15.7,3-32.9,18.8-38.2s32.9,3,38.2,18.8c2.2,6.3,2.2,13.2,0,19.5h773.4c7.8-21.9,31.9-33.4,53.8-25.5
		c11.9,4.2,21.3,13.6,25.5,25.5h572.2c0-38.9,31.5-70.3,70.4-70.3c6.8,0,13.5,1,20.1,2.9V0L1691.4,13.8z"/>
	<circle cx="1375.4" cy="76.3" r="25.3"/>
	<path class="st1" d="M1555.8,138.5c-0.5-0.3-1.1-0.4-1.7-0.3c-1.5-0.7-2.9-1.5-4.2-2.4c8.2-9.2,14.5-25.2,9-36.2
		c-5.5-11.2-15.8-4.4-21.8,2.6c-0.9-0.8-3-2-4.9-3.3l-0.4-3.5c0,0-3.4,1.4-3.4,1.4l-1.4-3.5c-1,0.1-8.3,5.9-10.7,8
		c-4.5,1.5-8.7,3.9-12.2,7.2c-3.3-6.2-8.4-12.1-15.5-13c-6.6-0.8-11.6,3.7-13.7,9.6c-4.8,13.4,2.7,35.2,17.4,39.2
		c0.2,0.5,1,6.3,3.5,7.2c0.8,0.3,0-1.9,3-2.4c0.7-0.1,1.4,0.3,1.8,0.8c2.2,4.6,5.8,7.6,10.4,9.9l-0.3,4.1
		c-7.5,2.4-14.2,7.5-17.5,14.8c-3.1,6.8-1.7,14.1-2.1,21.3h63.4c0.4-15.5-1.5-31-17.7-35.6l0.4-4.5c5.8,0.7,12.3-3.5,17.8-4.6
		C1565.1,153.2,1566.7,140.9,1555.8,138.5z"/>
	<path class="st1" d="M1593.2,186v13.8h-5.4l1-5.8l-4.7,3.4l-5.5-3.7l-1,6.1h-4.3V186h5.5h-0.1l6.5,7.1l5.1-5.4l0.3-1.7L1593.2,186z
		"/>
	<path class="st1" d="M1595.2,190h14.4v9.9h-14.4V190z M1599.6,198.3l6.6-1.2l-1-5.7l-6.6,1.2L1599.6,198.3z"/>
	<path class="st1" d="M1626,190v9.9h-14.4V190h2.9l1.5,8.3l6.6-1.2l-1.3-7.1H1626z"/>
	<path class="st1" d="M1642.3,190v1.4l-8.3,1.5l0.2,1.5l8-1.4v6.9h-14.4v-1.2l8.3-1.5l-0.3-1.5l-8,1.4v-7.2L1642.3,190z"/>
	<path class="st1" d="M1658.7,190v4.9l-11.3,2l0.3,1.6l11.1-2v3.3h-14.4v-9.9L1658.7,190z M1647.1,195.2l6.6-1.2l-0.2-1.2l-6.6,1.2
		L1647.1,195.2z"/>
	<path class="st1" d="M1684.1,186v5.8l-6.3-1.1l-1.6,9.1h-4.3l1.8-9.9l-8-1.4V186L1684.1,186z"/>
	<path class="st1" d="M1700.4,190v3l-2.1,0.4l-0.3-1.6l-7.6,1.3l1.2,6.7h-5.6v-9.9L1700.4,190z"/>
	<path class="st1" d="M1716.8,190v9.9h-14.4v-4.9l11.4-2l-0.3-1.6l-11.1,2V190L1716.8,190z M1707.7,197l6.6-1.2l-0.2-1.3l-6.6,1.2
		L1707.7,197z"/>
	<path class="st1" d="M1733.1,190v5.5l-11.3,2l0.4,2.4h-3.4V190H1733.1z M1721.4,195.5l6-1l-0.4-2l-6,1L1721.4,195.5z"/>
	<path class="st1" d="M1759.8,186v13.8h-5.6l0.7-4.1l-9.3-1.6l-1,5.8h-4.9V186h7.3l-0.9,5.2l9.3,1.6l1.2-6.8L1759.8,186z"/>
	<path class="st1" d="M1761.8,190h14.4v9.9h-14.4V190z M1766.2,198.3l6.6-1.2l-1-5.7l-6.6,1.2L1766.2,198.3z"/>
	<path class="st1" d="M1792.6,190v9.9h-14.4V190h2.9l1.5,8.3l6.6-1.2l-1.3-7.1H1792.6z"/>
	<path class="st1" d="M1809,190v1.4l-8.3,1.5l0.3,1.5l8-1.4v6.9h-14.4v-1.2l8.3-1.5l-0.3-1.5l-8,1.4v-7.2L1809,190z"/>
	<path class="st1" d="M1825.3,190v4.9l-11.3,2l0.3,1.6l11.1-2v3.3H1811V190L1825.3,190z M1813.7,195.2l6.6-1.2l-0.2-1.2l-6.6,1.2
		L1813.7,195.2z"/>
	<path class="st1" d="M1653.5,125.5v55.3h-21.6l4.1-23.1l-19,13.6l-22.1-14.9l-4.2,24.3h-17.2v-55.3h22.3l-0.3,0.2l26.1,28.4
		l20.2-21.6l1.2-7H1653.5z"/>
	<path class="st1" d="M1735.1,125.5v23.1l-25-4.3l-6.5,36.6h-17.1l7-39.6l-32.1-5.6v-10.1H1735.1z"/>
	<path class="st1" d="M1822.9,125.5v55.3h-22.3l2.9-16.6l-37-6.6l-4,23.2h-19.5v-55.3h29.2l-3.6,20.9l37.1,6.6l4.8-27.4H1822.9z"/>
	<circle class="st2" cx="162.8" cy="84.4" r="75.6"/>
	<path class="st0" d="M180.9,58.2c-0.2,0-0.4,0-0.6,0c-7.2,0-13-5.9-13-13c0-2.7,0.9-5.3,2.4-7.5l-7-12.9l-53,97.5H152
		c0.2-8.5,7.2-15.1,15.7-14.9c8.1,0.2,14.7,6.8,14.9,14.9h33.2L180.9,58.2z M147.3,95.8c-5.3,0-9.5-4.3-9.5-9.5
		c0-5.3,4.3-9.5,9.5-9.5c5.3,0,9.5,4.3,9.5,9.5l0,0C156.8,91.6,152.6,95.8,147.3,95.8L147.3,95.8z M192.2,111.7
		c-2.6,0-4.8-2.1-4.8-4.8s2.1-4.8,4.8-4.8s4.8,2.1,4.8,4.8l0,0C197,109.6,194.8,111.7,192.2,111.7L192.2,111.7z"/>
</g>
<g id="Layer_2">
	<path d="M1570.9,127.1c-0.7-0.4-1.6-0.6-2.4-0.5c-0.3,0.1-3-1.6-5.8-3.3c11.4-12.6,20-34.7,12.5-50s-21.9-6.1-30.2,3.5
		c-1.2-1.1-4.2-2.7-6.8-4.5l-0.6-4.9c0,0-4.7,2-4.8,1.9l-1.9-4.9c-1.4,0.1-11.5,8.1-14.9,11.1c-6.3,2-12,5.4-16.8,9.9
		c-4.6-8.5-11.6-16.7-21.5-18c-9.9-1.3-16,5.2-19,13.3c-6.6,18.6,3.8,48.7,24.1,54.2c0.3,0.7,1.5,8.7,4.8,9.9c1.2,0.4,0-2.7,4.1-3.3
		c1-0.1,1.9,0.4,2.4,1.2c3.1,6.3,8,10.5,14.4,13.7l-0.4,5.6c-10.4,3.3-19.6,10.3-24.2,20.4s-2.3,19.5-2.9,29.4h87.5
		c0.6-21.5-2.1-42.8-24.5-49.1l0.6-6.2c8,0.9,17.1-4.9,24.6-6.3C1583.7,147.4,1586,130.4,1570.9,127.1z"/>
	<path d="M1621.5,192.7v18.9h-7.6l1-5.6l-12.7-2.3l-1.3,7.9h-6.7v-18.9h10l-1.3,7.2l12.7,2.2l1.7-9.4H1621.5z"/>
	<path d="M1624.2,192.7h27.3v18.9h-27.3V192.7z M1644.3,208.8l1.9-11l-12.7-2.2l-1.9,10.9L1644.3,208.8z"/>
	<path d="M1654.2,192.7h27.3v18.9h-27.3V192.7z M1674.3,208.8l1.9-11l-12.7-2.2l-1.9,10.9L1674.3,208.8z"/>
	<path d="M1711.5,192.7L1711.5,192.7l-3.3,18.8h-8l-9.2-1.6l-0.3,1.6h-6.5v-16.7l4.6,0.9l0.5-3L1711.5,192.7z M1702.4,207.6l1.6-8.9
		l-10.7-1.9l-1.6,9L1702.4,207.6z"/>
	<path d="M1742.9,192.7l-1.7,10.1l6.6,1.1v7.7h-7.2l0.9-5.1l-12.7-2.2l-1.3,7.3h-6.9v-18.9H1742.9z M1737.2,202.1l0.7-3.9l-7.8-1.3
		l-0.6,3.8L1737.2,202.1z"/>
	<path d="M1775.6,192.7v18.9h-7.2l1.5-8.2l-11.3-2l-1.9,10.4l-6.2-0.2l3.4-18.9H1775.6z M1770.4,200.4l0.4-2.2l-11.3-2l-0.4,2.2
		L1770.4,200.4z"/>
	<path d="M1802,192.7v7.9l-8.6-1.5l-2.2,12.5h-5.8l2.4-13.5l-11-1.9v-3.5H1802z"/>
	<path d="M1832,192.7v6.3l-14.7-2.6l-0.7,4l15.4,2.7v8.5h-27.3v-6.1l14.9,2.6l0.7-3.9l-15.6-2.8v-8.7H1832z"/>
	<polygon points="1683.3,140.6 1630.6,131.3 1635.8,101.6 1594.2,101.6 1594.2,180.3 1621.9,180.3 1627.7,147.3 1680.4,156.7 
		1676.2,180.3 1707.9,180.3 1707.9,101.6 1690.2,101.6 	"/>
	<path d="M1804.5,142.9l7.3-41.3h-92.3v78h28.8l5.3-30.3l52.3,9.2l-3.7,21.1h29.8v-31.9L1804.5,142.9z M1788.4,140l-32.1-5.7
		l2.8-15.7l32.1,5.7L1788.4,140z"/>
</g>
</svg>
