<svg id="Layer_1" data-name="Layer 1"
  xmlns="http://www.w3.org/2000/svg" viewBox="0 0 360 78.76">
  <defs>
    <style>.cls-1{fill:none;}.cls-2{fill:#ffc629;}</style>
  </defs>
  <path class="cls-1" d="M234.65,4139.57c-3.2,0-5.8,3.23-5.8,7.21s2.6,7.21,5.8,7.21,5.8-3.23,5.8-7.21S237.86,4139.57,234.65,4139.57Z" transform="translate(0 -4125.01)"/>
  <path class="cls-2" d="M307.19,4128.93c-2.26,6.1-7.23,10.35-13,10.35-5.15,0-9.67-3.4-12.19-8.48l-176.2,13.08c0,.11,0,.23,0,.35,0,5.39-3.52,9.76-7.86,9.76-4.11,0-7.49-3.94-7.82-8.95l-55.91,4.15A23,23,0,0,1,0,4166.92V4196a6.62,6.62,0,0,1,5.63-3.62c3.82,0,6.92,3.84,6.92,8.59a10.41,10.41,0,0,1-.38,2.77H189.7c1.34-4.65,4.91-8,9.11-8s7.77,3.33,9.11,8H339.25c0-11.08,7.23-20.06,16.14-20.06a13.26,13.26,0,0,1,4.61.84V4125Z" transform="translate(0 -4125.01)"/>
  <path d="M258,4165.78a.79.79,0,0,0-.45-.08,12.11,12.11,0,0,1-1.1-.63c2.14-2.38,3.77-6.53,2.35-9.41s-4.12-1.15-5.69.67c-.23-.21-.79-.51-1.29-.86l-.1-.92s-.89.37-.9.35l-.38-.91a18.07,18.07,0,0,0-2.8,2.09,8.6,8.6,0,0,0-3.18,1.86c-.87-1.61-2.18-3.14-4-3.38a3.42,3.42,0,0,0-3.59,2.5c-1.25,3.49.71,9.15,4.54,10.2.06.12.28,1.62.91,1.86.22.08,0-.51.77-.63a.49.49,0,0,1,.46.22,5.58,5.58,0,0,0,2.71,2.58l-.08,1.06a7.36,7.36,0,0,0-4.56,3.84c-.8,1.75-.44,3.67-.55,5.53h16.51c.11-4-.39-8.06-4.61-9.24l.11-1.17c1.5.17,3.21-.91,4.63-1.19C260.4,4169.6,260.83,4166.41,258,4165.78Z" transform="translate(0 -4125.01)"/>
  <path d="M267.73,4178.13v3.59h-1.41l.27-1.5-1.24.88-1.44-1-.27,1.58h-1.12v-3.59h1.42l1.7,1.85,1.32-1.41.08-.45Z" transform="translate(0 -4125.01)"/>
  <path d="M268.25,4179.15H272v2.57h-3.74Zm1.14,2.16,1.72-.3-.26-1.48-1.72.3Z" transform="translate(0 -4125.01)"/>
  <path d="M276.26,4179.15v2.57h-3.75v-2.57h.76l.39,2.16,1.72-.3-.33-1.86Z" transform="translate(0 -4125.01)"/>
  <path d="M280.53,4179.15v.37l-2.17.38.07.39,2.1-.37v1.8h-3.75v-.3l2.16-.38-.07-.39-2.09.37v-1.87Z" transform="translate(0 -4125.01)"/>
  <path d="M284.79,4179.15v1.28l-3,.51.07.42,2.89-.51v.87h-3.74v-2.57Zm-3,1.36,1.72-.31-.06-.32-1.72.3Z" transform="translate(0 -4125.01)"/>
  <path d="M291.39,4178.13v1.5l-1.63-.29-.42,2.38h-1.12l.46-2.57-2.09-.37v-.65Z" transform="translate(0 -4125.01)"/>
  <path d="M295.66,4179.15v.79l-.55.11-.08-.41-2,.34.3,1.74h-1.45v-2.57Z" transform="translate(0 -4125.01)"/>
  <path d="M299.93,4179.15v2.57h-3.75v-1.27l3-.52-.07-.42-2.89.51v-.87Zm-2.37,1.85,1.72-.31-.06-.32-1.71.3Z" transform="translate(0 -4125.01)"/>
  <path d="M304.17,4179.15v1.42l-2.95.52.12.63h-.89v-2.57Zm-3,1.45,1.56-.28-.09-.5-1.57.27Z" transform="translate(0 -4125.01)"/>
  <path d="M311.14,4178.13v3.59h-1.45l.19-1.08-2.41-.42-.26,1.5h-1.27v-3.59h1.9l-.24,1.35,2.42.43.31-1.78Z" transform="translate(0 -4125.01)"/>
  <path d="M311.66,4179.15h3.75v2.57h-3.75Zm1.15,2.16,1.72-.3-.26-1.48-1.73.3Z" transform="translate(0 -4125.01)"/>
  <path d="M319.68,4179.15v2.57h-3.75v-2.57h.76l.38,2.16,1.73-.3-.33-1.86Z" transform="translate(0 -4125.01)"/>
  <path d="M323.94,4179.15v.37l-2.16.38.07.39,2.09-.37v1.8H320.2v-.3l2.16-.38-.07-.39-2.09.37v-1.87Z" transform="translate(0 -4125.01)"/>
  <path d="M328.21,4179.15v1.28l-3,.51.07.42,2.89-.51v.87h-3.75v-2.57Zm-3,1.36,1.73-.31-.07-.32-1.71.3Z" transform="translate(0 -4125.01)"/>
  <path d="M283.43,4162.41v14.36h-5.62l1.07-6-4.94,3.53-5.77-3.86-1.09,6.32h-4.49v-14.36h5.79l-.08,0,6.79,7.39,5.27-5.63.31-1.8Z" transform="translate(0 -4125.01)"/>
  <path d="M304.69,4162.41v6l-6.53-1.13-1.68,9.5H292l1.83-10.28-8.36-1.46v-2.62Z" transform="translate(0 -4125.01)"/>
  <path d="M327.58,4162.41v14.36h-5.81l.77-4.31-9.66-1.7-1.05,6h-5.08v-14.36h7.61l-.94,5.41,9.65,1.71,1.26-7.12Z" transform="translate(0 -4125.01)"/>
</svg>