<svg id="Layer_1" data-name="Layer 1"
	xmlns="http://www.w3.org/2000/svg" viewBox="0 0 13.92 508.02">
	<defs>
		<style>.cls-1{fill:#ffc629;fill-rule:evenodd;}</style>
	</defs>
	<path class="cls-1" d="M958.32,7479.15c.14-.77.42-.08.53-1s.33-3.57.36-4.1a39.32,39.32,0,0,0,0-6.14c0-.79-.15-1.18-.36-1-.69-1.07-1.07,2.54-1.43,2.05-.07-.1,0-3.31-.36-2.05-.28,2.73-.64,1-1.07,4.09-1.08,0-1.68,2.73-2.33,5.12-.48-2.83-.39,1.21-.9,1,0-2.23-.14-3.25-.54-3.07.21-4.2-.35-11.46-.36-17.39.23-4.49.9-6,.54-11.27.8.46.24-6.83,1.08-6.13v-7.17c.15-2.22.67-2.27.71-5.11,0-1.31-.23-1.43-.17-3.08-1-1.9-1.95-.86-2.69-2,0-1.25-.05-2.43-.36-2.05-.44-6.35-1-12.34-1.08-20.47.2-4,.4-12.27.18-15.35a149.08,149.08,0,0,0,1.26-15.35c.24,0,.39-.48.53-1,.07-4,.11-4,.72-6.13,0-1.95-.2-2.27-.18-4.1.65-.72,1-3.3,1.44-5.12.21-7.32,1.71-7.24,1.61-16.37-.35.31-.36-1.38-.54-2.05-1.39,3.32-2,11.21-3.58,13.3-.8-1.92-.7-9-1.26-12.27.35-2.75-.57-5.05-.36-10.24-.49-1.27-.51-5.23-.89-7.16.14-3.55-.27-3.94-.18-7.17,0-4,.46-8.09,0-11.25.88-3.17.86-11.45,1.79-14.33a64.25,64.25,0,0,0,2.15-8.19c-.14-3.55.27-3.94.18-7.16.25-.05.39.47.54,1,0-3.26.42-7.54,0-10.24-.14-.23-.36,0-.36-1-.89,1-1.13,5.82-1.79,8.19-.59,2.8-.78,7.83-1.61,9.21-.59-5.17-1.82-6.7-2.33-12.28-.26-2.62-.17-7.22-.54-9.21.62-.61.44-5.06.36-7.17.86-2.89,1.05-9.66,1.07-17.4.28-3.88.52-7.95.72-12.27.07-2.47-.33-2.23-.18-5.12a19.59,19.59,0,0,0,.36-8.19c.82-1.11.89-6.53,1.79-7.17.23-4.83,1-6.45,1.43-10.23.59-.4.79-3,1.26-4.1,0-3.05-.47-3.47-.54-6.14-1.38.73-1.81,2-3.05,2.05-.81-1.82-.91-7.74-1.43-11.26.55-3,.55-9.16.72-14.32a11,11,0,0,0-.36-3.07c.62-.53.26-6.69.36-10.24.59-4.8.63-12.75,1.61-15.35.82-.46,1.33-2.63,2-4.1.13-3.12-.18-3.72-.18-6.14.24-1,.66-1,.9-2-.24-6.17.68-5.64.71-10.24-.43-2-.18-1.61-.35-5.11-2-.23-2.17,9.43-3.59,12.28.08,2.46-.33,2.22-.18,5.11-.72-.7-.44,4.31-1.07,4.1a29.92,29.92,0,0,1-.72-6.14c.46-2.85.41-8.6,1.08-10.24-.1-6.7.41-9.9.53-15.35-.18-7.28.44-17.67,1.62-20.47a5.87,5.87,0,0,0,1.07,2.05,65.68,65.68,0,0,0,.9-8.19c.78-1,.94-5.55,1.43-8.18.73-2.64,1.43-5.49,1.43-12.29-.44-1.2-.33-5.59-.71-7.16-1.22-.45-1.6,3.81-2.51,5.12-.23,3.47-.93,4.23-1.07,8.18-.64,1.13-.6,6.18-1.44,6.15-.66-1.68-1-5.29-1.25-9.22,0-13.09,1.25-19.46,1.79-29.67.36,0,.23-2.8.71-2.05a112.56,112.56,0,0,1,1.8-15.35c.27-7,1.38-9.18,1.79-15.36a22,22,0,0,0-.54-5.11c-1,0-1.24,4.5-2,6.14-.23,6.54-1.2,8.82-1.25,16.37-.61.31-.52,4.54-1.08,5.12.13,3.13-.31,3-.18,6.14-.61,1.3-.83,4.83-1.07,8.19s-.8,5-.72,10.23c-.41-.31-.2,3-.54,3.07.09,6-.42,8.51-.54,13.31a57.81,57.81,0,0,1,.54,8.19,24.13,24.13,0,0,1,.9,3.07c-.19,3.81.67,1.62.54,5.11-.32,7.07-.73,13.59-1.44,18.42.33,3.55-.08,5.46-.18,9.21.07,11.86-.85,19.16-1.43,29.69.58,3.14,1.59,3.87,1.79,9.21a54.92,54.92,0,0,1-.36,8.18c.14.23.36,0,.36,1-.72,2.22.18,8.07-.54,9.21.18,3.8.39,2.67.18,7.16-.16,1.81-.43,3-.54,5.12.28,4-.18,10.81-.17,17.4.52,6.56,2.25,6.24,2.68,13.3-.31,2.64-.49,6.08-1.07,7.17.4,4.85-.78,6.28-1.08,10.23,0,3.8-.2,8.3-.36,9.21-.28,1.67-.41,6.4-.53,7.17-.18,1,0,.3,0,1-.24,4.3-.43,5.25-.54,10.23-.08,4-.2,3.64.18,6.15a97,97,0,0,0-.9,10.23c.07,4.84-.05,8.54-.18,12.28.09,3.26.57,4.28.54,8.19.83,2.58.94,3.84,1.79,5.11.11,3.18.85,2.7.9,6.15-.72,6.08-1.1,15-1.61,19.44.2,5.52-.06,4.29-.18,9.21,0,7.68.87,10.73.89,18.43a7.48,7.48,0,0,1,.54,2c-.14,3.9.53,3.14.54,6.14-.1,6.84.59,10.68.72,15.35.35.31.35-1.38.53-2a59,59,0,0,1,1.26,7.16,31.83,31.83,0,0,0-.9,9.21h-.54c-.1,4.53-.63,6.62-.89,10.23-.21,3.11-.09,7.49-.54,11.26a10.71,10.71,0,0,0,.36,3.07c-.14,1.62-.57,1.53-.54,4.1a47.5,47.5,0,0,1,0,8.18,48.71,48.71,0,0,1,.36,9.22c.46,1.31.56,2.11.36,5.12.79.94.86,6,1.25,9.21,1,1.87,1.6.08,2.15,3.06a40.89,40.89,0,0,1-.54,8.2c0,3.61-.75,5.6-.35,8.18-.22.12-.43.31-.36,2.05,0,.62,0,1.21-.18,1,.1,4.67-.32,6.38-.18,11.26,0,1.61-.46.8-.36,3.07.11,2.45.26,4.67.18,8.19.27,1.19.73,1.27.9,3.07-.45.15-.06,3.46,0,4.09.85-.79,1.15,1.6,2,1,1.54-4,3.47-12.45,5.37-8.18-.11,2.73-.51,3.89-.71,6.14-.29.09-.14,2.61-.54,2-.41.58.22,1.6-.18,3.08C958,7485.1,958.19,7479.84,958.32,7479.15Zm-7.71-55.27c.17,0,.14,1.25.18,2.05C950.62,7425.9,950.65,7424.68,950.61,7423.88Z" transform="translate(-945.41 -6975.62)"/>
</svg>