<svg version="1.2" baseProfile="tiny-ps"
	xmlns="http://www.w3.org/2000/svg" viewBox="0 0 1922 120" width="1922" height="120">
	<title>Layer 1</title>
	<style>
		tspan { white-space:pre }
		.shp0 { fill: #FFC629 }
	</style>
	<g id="Layer 1">
		<g id="&lt;Group&gt;">
			<g id="&lt;Group&gt;">
				<g id="&lt;Group&gt;">
					<path id="&lt;Compound Path&gt;" fill-rule="evenodd" class="shp0" d="M1920.22 1.59C1914.63 1.53 1910.78 2.38 1908.58 2.11C1910.72 1.58 1901.19 2.3 1900.83 2.03C1892.31 2.34 1887.91 2.21 1877.55 2.71C1861.52 5.57 1893.52 5.59 1908.83 6.22C1911.07 6.91 1902.04 7.75 1905.07 8.42C1902.72 8.62 1890.22 9.76 1889.6 9.35C1882.81 9.92 1882.56 10.4 1878.05 10.94C1864.73 11.65 1856.35 12.3 1847.07 12.97C1838.51 13.58 1841.54 12.95 1835.45 13.3C1817 14.54 1810.51 14.51 1792.85 15.67C1793.56 15.47 1791.35 15.59 1788.98 15.72C1782.41 16.18 1781.66 16.02 1781.21 15.82C1771.46 16.81 1763.91 16.46 1750.24 17.32C1740.85 17.65 1736.74 17.43 1719.22 18.63C1707.98 19.85 1714.77 20.09 1707.74 21.47C1695.67 22.59 1676.49 23.8 1672.98 24.8C1661.61 25.28 1658.6 25.56 1653.64 26.32C1647.86 26.49 1624.16 28.04 1618.81 28.76C1611.19 28.86 1596.71 29.96 1587.86 30.61C1578.16 31.22 1578.45 30.77 1572.34 30.99C1568.41 31.35 1568.37 31.65 1560.76 32.05C1546.45 32.45 1529.9 33.56 1518.13 34.06C1504.46 34.61 1496.5 34.55 1479.38 35.47C1479.37 35.29 1479.36 35.11 1479.34 34.94C1464.54 36.13 1454.05 36 1444.46 36.12C1433.8 37.1 1424.81 38.06 1417.43 38.99C1419.95 39.03 1426.35 38.65 1425.2 39.07C1407.54 40.25 1393.05 41.8 1367.18 43.25C1355.84 43.94 1358.73 44.44 1344 45.18C1340.39 45.52 1338.14 45.85 1336.29 46.17C1307.18 47.94 1295.69 49.47 1266.66 51.23C1248.03 52.23 1252.66 51.69 1231.82 53.13C1214.98 53.63 1181.24 55.26 1158.18 55.92C1145.12 56.75 1146.98 57.38 1134.99 58.2C1130.24 59.34 1125.46 59.74 1115.75 61.15C1100.98 62 1097.12 62.71 1084.81 63.54C1070.65 64.26 1056.65 64.97 1038.35 66.13C1024.59 66.69 1008.18 67.54 999.59 67.55C990.15 68.49 991.35 68.3 976.37 69.11C957.51 70.13 953.9 70.15 937.62 70.89C934.91 71.02 937.76 71.06 933.77 71.12C930.86 71.17 912.97 72.11 906.61 72.21C903.15 72.26 886.13 73.1 871.78 73.93C856.81 74.53 851.32 73.67 833 75.17C828.85 74.83 815.81 75.43 805.84 75.71C779.14 77.75 780.45 79.4 755.68 81.4C730.76 82.89 705.14 83.97 689.86 85.16C681.81 85.53 677.33 85.53 670.47 85.78C653.47 86.59 657.76 86.54 643.39 87.57C639.02 87.11 616.97 89.34 608.52 89.12C604.75 89.35 605.52 89.52 604.66 89.71C596.16 90.01 588.82 90.19 573.67 91.2C553.51 92.61 550.79 93.78 538.94 95.07C499.11 96.86 471.44 97.6 426.6 100.35C412.37 101.1 405.15 101.11 391.75 102.25C373.43 102.63 348.74 103.7 322 104.98C308.76 105.64 317.11 106 302.67 106.67C299.2 107.2 293.36 107.75 291.12 108.26C276.76 109.11 268.68 109.88 260.16 110.65C242.01 111.62 232.44 111.68 209.82 113.12C209.36 112.81 197.01 113.76 198.17 113.28C178.33 114.55 172.16 114.36 159.43 114.87C146.72 115.38 133.33 115.97 128.4 115.65C116.55 116.49 116.99 116.02 105.15 116.86C102.93 116.43 86.92 117.48 85.73 116.94C57.16 118.6 48.48 118.14 23.73 119.39C17.49 119.03 0.46 119.82 0.39 118.81C6.36 118.25 8.4 117.75 19.7 117.12C43.1 116.13 51.43 116.75 77.88 115.44C93.46 115.28 111.36 114.88 136.04 113.76C133.25 114.41 143.77 113.66 143.84 114.01C182.52 112.24 206.66 112.01 256.2 109.09C271.04 107.94 284.65 106.8 290.97 105.76C291.05 104.91 271.96 106.09 267.64 105.71C252.69 106.46 249.78 105.93 236.61 106.49C231.63 105.88 215.48 106.46 217.11 105.14C223.04 104.41 239.64 103.53 244.16 102.81C269.86 101.28 280.68 101.33 290.71 101.46C300.71 101.36 317.95 100.49 321.76 101.04C334.78 100.44 344.32 100.21 352.78 100.09C351.53 100.58 348.16 101.11 345.09 101.63C355.75 102.17 395.08 100.43 422.6 98.61C443.22 97.5 455.36 97.29 480.71 95.68C486.95 95.97 508.69 94.63 519.48 94.44C529.35 93.71 538.24 92.99 542.66 92.34C543.44 91.65 524.49 93.07 527.12 92.19C516.17 92.99 517.07 92.53 507.74 93.16C496.91 92.4 460.34 94.36 461.09 92.36C474.32 91.39 472.72 91.74 480.42 90.85C497.8 89.84 495.85 90.89 519.17 89.25C523.13 89.25 523 89.68 526.97 89.68C536.09 89.14 538.36 88.69 550.18 88.11C555.76 88.42 564 88.45 565.79 89.16C575.68 89.55 605.75 87.79 623.94 87.3C637.37 86.59 660.63 84.84 662.68 85.34C666.59 84.99 666.65 84.69 674.26 84.29C693.81 83.3 717.25 81.89 728.5 81.77C741.77 80.46 764.14 79.02 771 77.79C770.61 76.58 765.91 76.43 763.07 75.22C773.13 74.54 774.71 73.99 786.26 73.29C790.46 73.51 800.3 73.12 801.83 73.62C816.14 73.18 822.32 73.6 840.62 72.74C843.1 73.49 863.59 72.34 867.83 72.91C880.03 71.65 891.22 71.31 898.82 71.42C909.77 70.91 908.83 70.56 918.17 70.08C934.54 69.3 949.93 68.62 964.65 68.02C993.92 66.29 1019.54 64.95 1030.52 65.16C1038.5 64.6 1055.32 63.42 1057.63 63.9C1065.15 63.08 1082.54 62.13 1092.45 61.28C1113.55 59.51 1119.26 57.94 1138.75 56.18C1133.49 55.66 1114.44 56.61 1103.82 56.65C1094.81 56.53 1076.69 57.38 1072.74 56.72C1076.51 56.49 1075.74 56.32 1076.59 56.13C1086.78 55.1 1103 54.52 1115.31 53.81C1113.26 54.08 1111.3 54.34 1111.47 54.58C1123.67 53.76 1125.17 54.09 1138.57 53.14C1150.07 53.12 1161.4 53.12 1169.68 53.44C1180.62 53.71 1211.96 51.82 1223.98 51.99C1235.9 50.81 1251.49 50.4 1266.55 49.45C1278.77 48.8 1280.21 48.31 1293.64 47.65C1300.95 46.83 1315.9 45.91 1320.69 45.13C1340.32 44.18 1348.95 42.73 1359.37 42.46C1371.76 41.16 1398.49 39.67 1405.74 38.44C1397.74 37.31 1367.86 38.5 1355.2 37.86C1357.71 37.53 1364.1 37.15 1362.92 36.87C1397.43 34.7 1397.25 36.22 1424.95 34.77C1431.86 34.82 1441.61 34.56 1444.39 35.05C1451.33 34.66 1452.52 34.34 1459.87 33.95C1467.81 34.09 1468 34.12 1483.13 33.27C1485.2 33.29 1487.18 33.32 1487.03 33.58C1510.02 32.46 1529.89 31.67 1545.17 31.36C1556.83 30.45 1587.99 28.79 1603.24 28.07C1633.99 26.11 1656.61 24.25 1680.59 22.37C1679.16 22.15 1683.6 21.86 1688.33 21.55C1692.75 20.54 1688.74 19.81 1695.89 18.41C1702.14 18.09 1702.56 17.84 1707.51 17.53C1718.26 16.93 1718.49 17.45 1726.91 17.09C1735.94 16.55 1744.96 16.01 1754.01 15.47C1751.44 16.47 1778.98 14.26 1777.29 15.16C1797.1 13.62 1802.91 13.94 1819.91 13.15C1842.35 11.8 1869.77 9.61 1885.69 8.86C1884.96 8.51 1888.83 8.1 1897.26 7.63C1897.94 7.09 1882.67 8.09 1893.34 6.97C1884.28 6.85 1873.92 6.87 1873.86 5.8C1862 6.07 1868.66 5.32 1858.3 5.65C1853.51 5.6 1865.67 4.92 1866.03 4.83C1867.88 4.37 1854.2 4.8 1858.19 3.86C1857.58 3.69 1859.04 3.49 1862.03 3.28C1868.13 2.72 1878.59 2.17 1885.27 1.89C1887.27 1.8 1897.03 1.42 1900.78 1.32C1904.36 1.22 1901.74 1.66 1904.67 1.62C1907.3 1.59 1927.21 0.56 1920.22 1.59ZM1703.84 21.16C1700.83 21.38 1696.2 21.63 1696.09 21.81C1699.1 21.59 1703.74 21.35 1703.84 21.16Z" />
				</g>
			</g>
		</g>
	</g>
</svg>