<svg id="Layer_1" data-name="Layer 1"
	xmlns="http://www.w3.org/2000/svg" viewBox="0 0 1914.22 118.25">
	<defs>
		<style>.cls-1{fill:#ffc629;fill-rule:evenodd;}</style>
	</defs>
	<path class="cls-1" d="M22.59,2664.74c2.91,0,.3.4,3.87.31,3.73-.1,13.46-.48,15.45-.57,6.66-.29,17.08-.83,23.15-1.39,3-.22,4.44-.42,3.83-.59,4-.93-9.66-.5-7.81-1,.36-.1,12.47-.77,7.7-.83-10.32.34-3.68-.42-15.5-.14-.06-1.08-10.39-1.06-19.41-1.17,10.63-1.12-4.58-.12-3.91-.67,8.4-.47,12.26-.88,11.53-1.23,15.86-.74,43.18-2.94,65.54-4.29,16.93-.79,22.72-.46,42.47-2-1.69.89,25.75-1.31,23.19-.32l27-1.62c8.39-.35,8.63.16,19.33-.44,4.94-.3,5.36-.55,11.58-.87,7.12-1.4,3.13-2.14,7.53-3.15,4.71-.3,9.14-.6,7.72-.82,23.88-1.87,46.42-3.73,77-5.69,15.21-.73,46.25-2.38,57.87-3.3,15.22-.3,35-1.09,57.92-2.21-.15.25,1.82.28,3.89.3,15.07-.84,15.26-.81,23.17-.67,7.32-.4,8.51-.71,15.42-1.1,2.77.48,12.49.23,19.38.27,27.59-1.44,27.41.08,61.8-2.09-1.18-.28,5.19-.67,7.68-1-12.61-.63-42.38.56-50.35-.57,7.22-1.23,33.85-2.73,46.2-4,10.38-.27,19-1.71,38.54-2.67,4.77-.78,19.66-1.7,26.94-2.51,13.39-.66,14.82-1.16,27-1.8,15-1,30.54-1.36,42.42-2.54,12,.16,43.2-1.73,54.1-1.45,8.25.32,19.54.32,31,.29,13.35-.94,14.84-.62,27-1.43.18.23-1.78.5-3.82.76,12.26-.7,28.42-1.28,38.57-2.31.85-.19.08-.36,3.85-.59-4-.66-22,.19-31,.06-10.59.05-29.56,1-34.81.47,19.42-1.75,25.11-3.32,46.14-5.1,9.86-.85,27.19-1.8,34.68-2.62,2.3.49,19.06-.69,27-1.25,10.94.21,36.47-1.13,65.63-2.86,14.67-.61,30-1.28,46.31-2.06,9.3-.49,8.37-.83,19.28-1.34a276.81,276.81,0,0,0,30.88-1.49c4.22.57,24.64-.59,27.11.17,18.23-.87,24.39-.44,38.65-.88,1.52.5,11.32.11,15.51.32,11.5-.69,13.07-1.25,23.1-1.92-2.83-1.21-7.52-1.36-7.9-2.58,6.83-1.22,29.11-2.66,42.34-4,11.21-.12,34.56-1.53,54-2.53,7.58-.4,7.64-.7,11.54-1.05,2,.51,25.21-1.25,38.6-1.95,18.12-.5,48.08-2.25,57.93-1.86,1.78.71,10,.73,15.56,1,11.77-.58,14-1,23.12-1.57,4,0,3.82.44,7.77.44,23.23-1.64,21.29-.59,38.61-1.6,7.67-.89,6.07-.55,19.26-1.51.74-2-35.69,0-46.49-.81-9.29.63-8.4.18-19.3,1,2.62-.88-16.26.54-15.49-.15,4.4-.66,13.27-1.37,23.1-2.1,10.75-.19,32.4-1.54,38.63-1.24,25.25-1.61,37.35-1.82,57.89-2.93,27.42-1.83,66.6-3.56,77.22-3a59,59,0,0,0-7.66,1.54c8.44-.12,17.94-.35,30.91-1,3.8.56,21-.31,30.94-.42,10,.14,20.77.19,46.38-1.34,4.5-.72,21-1.6,26.94-2.34,1.63-1.31-14.46-.73-19.43-1.34-13.12.55-16,0-30.91.77-4.3-.38-23.33.81-23.24,0,6.29-1,19.85-2.18,34.64-3.33,49.35-2.93,73.41-3.15,112-4.92.07.35,10.54-.4,7.76.25,24.6-1.12,42.43-1.52,58-1.68,26.36-1.31,34.65-.69,58-1.68,11.25-.63,13.29-1.13,19.24-1.69-.07-1-17-.23-23.25-.58-24.66,1.25-33.31.79-61.78,2.45-1.18-.54-17.14.5-19.35.08-11.79.84-11.36.37-23.16,1.21-4.91-.32-18.25.26-30.92.77s-18.83.33-38.59,1.6c1.15-.48-11.16.47-11.62.16-22.53,1.44-32.07,1.5-50.15,2.47-8.49.77-16.54,1.53-30.84,2.38-2.24.51-8.06,1.07-11.51,1.59-14.38.67-6.07,1-19.26,1.7-26.64,1.28-51.24,2.34-69.49,2.73-13.35,1.13-20.55,1.14-34.72,1.9-44.68,2.75-72.25,3.48-111.93,5.28-11.8,1.29-14.52,2.46-34.6,3.87-15.1,1-22.41,1.18-30.88,1.49-.86.19-.09.36-3.84.59-8.42-.22-30.39,2-34.75,1.54-14.31,1-10,1-27,1.8-6.83.25-11.29.24-19.32.62-15.22,1.18-40.74,2.26-65.57,3.75-24.68,2-23.37,3.66-50,5.69-9.93.28-22.92.89-27,.55-18.26,1.49-23.73.64-38.64,1.24-14.3.83-31.26,1.67-34.71,1.72-6.33.1-24.15,1-27.05,1.08a36.63,36.63,0,0,0-3.84.23c-16.22.74-19.82.76-38.61,1.78-14.92.82-13.72.63-23.13,1.57-8.56,0-24.91.85-38.62,1.41-18.23,1.17-32.18,1.88-46.29,2.6-12.26.82-16.11,1.53-30.82,2.39-9.67,1.41-14.43,1.8-19.17,2.94-11.95.82-10.09,1.45-23.1,2.29-23,.66-56.6,2.29-73.37,2.78-20.76,1.45-16.16.91-34.72,1.9-28.92,1.77-40.37,3.3-69.37,5.06-1.84.32-4.08.65-7.68,1-14.67.73-11.79,1.23-23.1,1.92-25.77,1.45-40.2,3-57.8,4.19-1.14.42,5.23,0,7.74.07-7.35.94-16.3,1.89-26.92,2.87-9.56.12-20,0-34.76,1.19,0-.18,0-.36,0-.54-17.05.92-25,.87-38.61,1.42-11.72.5-28.21,1.61-42.47,2-7.58.4-7.62.7-11.54,1-6.08.23-5.8-.22-15.46.39-8.82.64-23.24,1.75-30.84,1.85-5.33.72-28.94,2.27-34.7,2.44-4.94.76-7.94,1-19.27,1.51-3.5,1-22.6,2.22-34.63,3.34-7,1.37-.23,1.61-11.44,2.84-17.45,1.2-21.54,1-30.9,1.31-13.62.85-21.14.51-30.85,1.49-.46-.19-1.2-.35-7.75.11-2.35.13-4.56.24-3.85,0-17.6,1.16-24.06,1.12-42.44,2.37-6.07.34-3-.28-11.59.33-9.24.66-17.59,1.31-30.85,2-4.5.54-4.76,1-11.51,1.59-.62-.41-13.07.73-15.42.92,3,.68-6,1.52-3.74,2.2,15.25.64,47.13.65,31.16,3.52-10.32.5-14.7.37-23.19.67-.36-.26-9.85.45-7.72-.07-2.2-.28-6,.57-11.6.51C.13,2665.81,20,2664.77,22.59,2664.74Zm207.8-20.18c-.11.18-4.72.42-7.72.64C222.77,2645,227.39,2644.78,230.39,2644.56Z" transform="translate(-5.62 -2546.98)"/>
</svg>