<svg id="Layer_1" data-name="Layer 1"
  xmlns="http://www.w3.org/2000/svg" viewBox="0 0 10.44 715.18">
  <defs>
    <style>.cls-1{fill:#ffc629;fill-rule:evenodd;}</style>
  </defs>
  <path class="cls-1" d="M42.14,3565.66c.1-1.09.32-.1.4-1.43s.25-5,.27-5.77c.09-2.48.15-6.38,0-8.65,0-1.11-.11-1.66-.27-1.44-.52-1.5-.81,3.59-1.07,2.89,0-.14,0-4.66-.27-2.89-.21,3.85-.48,1.36-.81,5.77-.8,0-1.25,3.84-1.74,7.2-.36-4-.3,1.7-.68,1.44,0-3.14-.11-4.58-.4-4.32.15-5.92-.26-16.14-.27-24.49.17-6.32.67-8.47.41-15.85.59.64.17-9.62.8-8.64v-10.09c.11-3.13.51-3.21.54-7.21,0-1.84-.17-2-.14-4.32-.72-2.69-1.45-1.22-2-2.88,0-1.76,0-3.41-.27-2.89-.33-8.93-.71-17.36-.81-28.81.15-5.67.3-17.27.14-21.61.45-5.67.75-13.06.94-21.61.18.06.29-.67.4-1.44.05-5.63.08-5.7.54-8.64,0-2.74-.15-3.19-.13-5.77.48-1,.73-4.64,1.07-7.2.16-10.31,1.29-10.21,1.21-23.06-.26.44-.27-1.94-.4-2.88-1.05,4.68-1.49,15.79-2.69,18.73-.6-2.72-.52-12.66-.94-17.29.26-3.86-.44-7.1-.27-14.4-.37-1.8-.39-7.36-.67-10.09.1-5-.2-5.54-.14-10.08,0-5.61.35-11.4,0-15.85.66-4.45.65-16.12,1.35-20.17.61-3.06,1.11-7.27,1.61-11.53-.11-5,.2-5.54.13-10.08.19-.06.3.67.41,1.44,0-4.58.31-10.61,0-14.41-.11-.32-.27,0-.27-1.45-.67,1.45-.85,8.19-1.35,11.53-.44,3.94-.58,11-1.21,13-.44-7.27-1.36-9.42-1.74-17.29-.2-3.69-.13-10.16-.41-13,.47-.84.34-7.11.27-10.08.65-4.07.79-13.6.81-24.49.21-5.48.39-11.2.54-17.29,0-3.47-.25-3.13-.14-7.21a51,51,0,0,0,.27-11.52c.62-1.56.67-9.19,1.35-10.09.17-6.81.76-9.09,1.07-14.41.44-.55.59-4.21.94-5.76,0-4.3-.35-4.9-.4-8.65-1,1-1.36,2.77-2.29,2.89-.61-2.57-.68-10.9-1.07-15.85.41-4.18.41-12.9.54-20.17a30.25,30.25,0,0,0-.27-4.32c.47-.75.19-9.42.27-14.41.44-6.76.47-17.95,1.21-21.61.61-.65,1-3.71,1.47-5.77.1-4.4-.13-5.25-.13-8.64.18-1.47.49-1.41.67-2.89-.18-8.68.51-7.93.54-14.4-.33-2.88-.14-2.27-.27-7.2-1.46-.33-1.63,13.28-2.69,17.28.06,3.47-.24,3.13-.13,7.21-.54-1-.33,6.06-.81,5.76a79.36,79.36,0,0,1-.54-8.65c.35-4,.31-12.09.81-14.4-.07-9.44.31-13.95.4-21.62-.13-10.24.33-24.87,1.21-28.81a11.85,11.85,0,0,0,.81,2.89c.29-3.15.54-6.69.67-11.53.59-1.4.71-7.82,1.08-11.53a103,103,0,0,0,1.07-17.29c-.33-1.69-.25-7.87-.54-10.08-.91-.64-1.2,5.37-1.88,7.2-.17,4.9-.7,6-.8,11.52-.48,1.6-.45,8.71-1.08,8.65-.5-2.36-.74-7.43-.94-13,0-18.43.94-27.39,1.34-41.78.27,0,.18-3.93.54-2.88.26-9.18.76-15.83,1.35-21.61.2-9.84,1-12.91,1.34-21.61a57.28,57.28,0,0,0-.4-7.2c-.76,0-.94,6.33-1.48,8.64-.17,9.21-.91,12.42-.94,23.05-.46.43-.39,6.39-.81,7.2.1,4.41-.23,4.24-.13,8.65-.46,1.82-.62,6.8-.81,11.53s-.6,7-.54,14.4c-.31-.44-.15,4.16-.4,4.33.07,8.42-.32,12-.4,18.72.19,3.18.4,6.19.4,11.53.28.85.43,3,.67,4.32-.14,5.37.5,2.29.4,7.21-.23,10-.54,19.13-1.07,25.93.25,5-.07,7.67-.14,13,0,16.69-.63,27-1.07,41.78.44,4.42,1.19,5.46,1.34,13,.08,5.64-.11,8.36-.27,11.52.11.33.27.05.27,1.45-.54,3.13.14,11.35-.4,13,.13,5.36.29,3.77.13,10.09-.12,2.55-.32,4.21-.4,7.2.2,5.7-.13,15.22-.13,24.49.39,9.24,1.69,8.79,2,18.74-.23,3.7-.36,8.55-.8,10.08.3,6.83-.59,8.85-.81,14.41,0,5.34-.15,11.67-.27,13-.21,2.36-.31,9-.4,10.09-.14,1.49,0,.43,0,1.44-.18,6.05-.32,7.39-.4,14.41a65.08,65.08,0,0,0,.13,8.64c-.38,3.19-.48,9.3-.67,14.41,0,6.81-.05,12-.14,17.29.07,4.58.42,6,.41,11.53.62,3.63.7,5.41,1.34,7.2.08,4.46.63,3.79.67,8.65-.54,8.57-.82,21.12-1.21,27.37.15,7.76,0,6-.13,13,0,10.8.65,15.1.67,25.93a18.64,18.64,0,0,1,.4,2.88c-.11,5.48.4,4.42.41,8.64-.08,9.63.44,15,.53,21.62.27.43.27-2,.41-2.88q.55,4.13.94,10.08a81.75,81.75,0,0,0-.67,13h-.41c-.08,6.37-.47,9.32-.67,14.4-.15,4.38-.06,10.54-.4,15.86a27.56,27.56,0,0,0,.27,4.32,48,48,0,0,0-.41,5.76c.09,3.3.27,8.69,0,11.52a126.76,126.76,0,0,1,.27,13c.35,1.86.42,3,.27,7.21.59,1.32.64,8.46.94,13,.72,2.64,1.2.13,1.62,4.32A110.27,110.27,0,0,1,37.3,3508c0,5.08-.57,7.88-.27,11.52-.16.16-.32.44-.27,2.88,0,.88,0,1.7-.13,1.44.07,6.57-.24,9-.13,15.85,0,2.26-.35,1.13-.27,4.32.08,3.45.19,6.58.13,11.53a29.86,29.86,0,0,1,.67,4.32c-.33.22,0,4.88,0,5.76.64-1.11.87,2.26,1.48,1.44,1.16-5.66,2.6-17.53,4-11.52-.08,3.85-.38,5.48-.53,8.65-.22.12-.11,3.67-.41,2.87-.3.81.16,2.26-.13,4.33C41.93,3574,42.05,3566.64,42.14,3565.66Zm-5.78-77.8a18,18,0,0,1,.14,2.88A15.78,15.78,0,0,1,36.36,3487.86Z" transform="translate(-32.46 -2856.81)"/>
</svg>