<svg id="Layer_1" data-name="Layer 1"
  xmlns="http://www.w3.org/2000/svg" viewBox="0 0 10.44 715.18">
  <defs>
    <style>.cls-1{fill:#ffc629;fill-rule:evenodd;}</style>
  </defs>
  <path class="cls-1" d="M318.4,3571.43c-.3-2.07.17-3.52-.14-4.33-.29.8-.19-2.75-.4-2.87-.15-3.17-.45-4.8-.54-8.65,1.43-6,2.88,5.86,4,11.52.61.82.83-2.55,1.47-1.44,0-.88.34-5.54,0-5.76a31.07,31.07,0,0,1,.68-4.32c-.06-4.95.05-8.08.13-11.53.07-3.19-.26-2.06-.27-4.32.11-6.87-.21-9.28-.13-15.85-.12.26-.13-.56-.14-1.44,0-2.44-.1-2.72-.27-2.88.3-3.64-.29-6.44-.26-11.52a110.27,110.27,0,0,1-.41-11.54c.42-4.19.9-1.68,1.61-4.32.3-4.5.35-11.64,1-13-.16-4.23-.08-5.35.27-7.21a129.71,129.71,0,0,1,.26-13c-.26-2.83-.08-8.22,0-11.52a48.5,48.5,0,0,0-.4-5.76,27.56,27.56,0,0,0,.27-4.32c-.34-5.32-.25-11.48-.4-15.86-.2-5.08-.6-8-.68-14.4h-.4a83,83,0,0,0-.67-13q.39-6,.94-10.08c.14.93.14,3.31.4,2.88.1-6.58.61-12,.54-21.62,0-4.22.51-3.16.4-8.64a18.4,18.4,0,0,1,.41-2.88c0-10.83.65-15.13.67-25.93-.09-6.93-.29-5.21-.14-13-.38-6.25-.67-18.8-1.2-27.37,0-4.86.59-4.19.67-8.65.64-1.79.72-3.57,1.34-7.2,0-5.5.34-6.95.4-11.53-.09-5.27-.18-10.48-.13-17.29-.2-5.11-.3-11.22-.67-14.41a65.08,65.08,0,0,0,.13-8.64c-.08-7-.22-8.36-.4-14.41,0-1,.13.05,0-1.44-.1-1.08-.19-7.73-.4-10.09-.12-1.29-.25-7.62-.27-13-.22-5.56-1.11-7.58-.81-14.41-.44-1.53-.57-6.38-.81-10.08.33-9.95,1.63-9.5,2-18.74,0-9.27-.34-18.79-.13-24.49-.08-3-.29-4.65-.41-7.2-.15-6.32,0-4.73.14-10.09-.54-1.61.13-9.83-.41-13,0-1.4.17-1.12.27-1.45-.15-3.16-.35-5.88-.27-11.52.15-7.51.91-8.55,1.35-13-.44-14.81-1.13-25.09-1.08-41.78-.07-5.3-.38-8-.13-13-.53-6.8-.84-16-1.08-25.93-.1-4.92.55-1.84.41-7.21.23-1.29.39-3.47.67-4.32,0-5.34.2-8.35.4-11.53-.09-6.75-.47-10.3-.4-18.72-.26-.17-.1-4.77-.4-4.33.06-7.39-.36-9.67-.54-14.4s-.35-9.71-.81-11.53c.1-4.41-.23-4.24-.13-8.65-.42-.81-.36-6.77-.81-7.2,0-10.63-.77-13.84-.94-23.05-.55-2.31-.72-8.64-1.48-8.64a55.38,55.38,0,0,0-.4,7.2c.31,8.7,1.14,11.77,1.34,21.61.58,5.78,1.08,12.43,1.35,21.61.36-1.05.27,2.87.53,2.88.41,14.39,1.32,23.35,1.35,41.78a105.1,105.1,0,0,1-.94,13c-.64.06-.6-7.05-1.08-8.65-.11-5.56-.63-6.62-.81-11.52-.68-1.83-1-7.84-1.88-7.2-.28,2.21-.2,8.39-.53,10.08a103,103,0,0,0,1.07,17.29c.37,3.71.49,10.13,1.08,11.53.13,4.84.38,8.38.67,11.53a12.4,12.4,0,0,0,.8-2.89c.89,3.94,1.35,18.57,1.21,28.81.1,7.67.48,12.18.41,21.62.5,2.31.46,10.4.8,14.4a77.42,77.42,0,0,1-.53,8.65c-.48.3-.27-6.76-.81-5.76.11-4.08-.19-3.74-.14-7.21-1.06-4-1.22-17.61-2.68-17.28-.14,4.93.05,4.32-.27,7.2,0,6.47.72,5.72.54,14.4.17,1.48.49,1.42.67,2.89,0,3.39-.23,4.24-.14,8.64.48,2.06.87,5.12,1.48,5.77.74,3.66.77,14.85,1.21,21.61.07,5-.2,13.66.27,14.41a27.45,27.45,0,0,0-.27,4.32c.13,7.27.12,16,.54,20.17-.39,4.95-.47,13.28-1.08,15.85-.93-.12-1.25-1.86-2.28-2.89-.05,3.75-.4,4.35-.4,8.65.34,1.55.5,5.21.94,5.76.31,5.32.9,7.6,1.07,14.41.68.9.73,8.53,1.35,10.09a51,51,0,0,0,.27,11.52c.11,4.08-.19,3.74-.14,7.21.15,6.09.33,11.81.54,17.29,0,10.89.15,20.42.8,24.49-.06,3-.19,9.24.27,10.08-.27,2.81-.21,9.28-.4,13-.39,7.87-1.31,10-1.75,17.29-.62-1.94-.77-9-1.21-13-.49-3.34-.67-10.08-1.34-11.53,0,1.41-.17,1.13-.27,1.45-.31,3.8,0,9.83,0,14.41.11-.77.22-1.5.4-1.44-.06,4.54.25,5.09.14,10.08.5,4.26,1,8.47,1.61,11.53.7,4,.68,15.72,1.35,20.17-.35,4.45,0,10.24,0,15.85.06,4.54-.25,5.09-.14,10.08-.28,2.73-.3,8.29-.67,10.09.16,7.3-.53,10.54-.27,14.4-.42,4.63-.34,14.57-.94,17.29-1.21-2.94-1.65-14.05-2.69-18.73-.14.94-.14,3.32-.4,2.88-.08,12.85,1.05,12.75,1.21,23.06.34,2.56.58,6.18,1.07,7.2,0,2.58-.16,3-.13,5.77.46,2.94.49,3,.54,8.64.1.77.21,1.5.4,1.44.19,8.55.48,15.94.94,21.61-.16,4.34,0,15.94.13,21.61-.09,11.45-.47,19.88-.8,28.81-.23-.52-.26,1.13-.27,2.89-.56,1.66-1.29.19-2,2.88,0,2.32-.13,2.48-.13,4.32,0,4,.42,4.08.54,7.21v10.09c.63-1,.2,9.28.8,8.64-.27,7.38.24,9.53.41,15.85,0,8.35-.43,18.57-.27,24.49-.3-.26-.43,1.18-.41,4.32-.38.26-.31-5.42-.67-1.44-.49-3.36-.94-7.2-1.75-7.2-.32-4.41-.59-1.92-.8-5.77-.26-1.77-.22,2.75-.27,2.89-.27.7-.56-4.39-1.08-2.89-.15-.22-.24.33-.27,1.44-.14,2.27-.08,6.17,0,8.65,0,.74.18,4.37.27,5.77s.3.34.41,1.43S317.94,3574,318.4,3571.43Zm5-80.69a16.81,16.81,0,0,1,.14-2.88A16.81,16.81,0,0,1,323.37,3490.74Z" transform="translate(-316.97 -2856.81)"/>
</svg>