<svg id="Layer_1" data-name="Layer 1" xmlns="http://www.w3.org/2000/svg" viewBox="0 0 500 200"><path d="M176.5,89a4.3,4.3,0,0,0-2.4-.5c-.3.1-3-1.6-5.8-3.3,11.4-12.6,20-34.7,12.5-50s-21.9-6.1-30.2,3.5c-1.2-1.1-4.2-2.7-6.8-4.5l-.6-4.9s-4.7,2-4.8,1.9l-1.9-4.9c-1.4.1-11.5,8.1-14.9,11.1a45.4,45.4,0,0,0-16.8,9.9c-4.6-8.5-11.6-16.7-21.5-18s-16,5.2-19,13.3c-6.6,18.6,3.8,48.7,24.1,54.2.3.7,1.5,8.7,4.8,9.9,1.2.4,0-2.7,4.1-3.3a2.6,2.6,0,0,1,2.4,1.2c3.1,6.3,8,10.5,14.4,13.7l-.4,5.6c-10.4,3.3-19.6,10.3-24.2,20.4s-2.3,19.5-2.9,29.4h87.5c.6-21.5-2.1-42.8-24.5-49.1l.6-6.2c8,.9,17.1-4.9,24.6-6.3C189.3,109.3,191.6,92.3,176.5,89Z"/><path d="M227.1,154.6v18.9h-7.6l1-5.6-12.7-2.3-1.3,7.9h-6.7V154.6h10l-1.3,7.2,12.7,2.2,1.7-9.4Z"/><path d="M229.8,154.6h27.3v18.9H229.8Zm20.1,16.1,1.9-11-12.7-2.2-1.9,10.9Z"/><path d="M259.8,154.6h27.3v18.9H259.8Zm20.1,16.1,1.9-11-12.7-2.2-1.9,10.9Z"/><path d="M317.1,154.6h0l-3.3,18.8h-8l-9.2-1.6-.3,1.6h-6.5V156.7l4.6.9.5-3ZM308,169.5l1.6-8.9-10.7-1.9-1.6,9Z"/><path d="M348.5,154.6l-1.7,10.1,6.6,1.1v7.7h-7.2l.9-5.1-12.7-2.2-1.3,7.3h-6.9V154.6Zm-5.7,9.4.7-3.9-7.8-1.3-.6,3.8Z"/><path d="M381.2,154.6v18.9H374l1.5-8.2-11.3-2-1.9,10.4-6.2-.2,3.4-18.9Zm-5.2,7.7.4-2.2-11.3-2-.4,2.2Z"/><path d="M407.6,154.6v7.9L399,161l-2.2,12.5H391l2.4-13.5-11-1.9v-3.5Z"/><path d="M437.6,154.6v6.3l-14.7-2.6-.7,4,15.4,2.7v8.5H410.3v-6.1l14.9,2.6.7-3.9-15.6-2.8v-8.7Z"/><polygon points="288.9 102.5 236.2 93.2 241.4 63.5 199.8 63.5 199.8 142.2 227.5 142.2 233.3 109.2 286 118.6 281.8 142.2 313.5 142.2 313.5 63.5 295.8 63.5 288.9 102.5"/><path d="M410.1,104.8l7.3-41.3H325.1v78h28.8l5.3-30.3,52.3,9.2-3.7,21.1h29.8V109.6ZM394,101.9l-32.1-5.7,2.8-15.7,32.1,5.7Z"/></svg>