<svg version="1.2" baseProfile="tiny-ps" xmlns="http://www.w3.org/2000/svg" viewBox="0 0 354 108" width="354" height="108">
	<title>Layer 1</title>
	<style>
		tspan { white-space:pre }
		.shp0 { fill: #000000 } 
	</style>
	<g id="Layer 1">
		<g id="&lt;Group&gt;">
			<g id="&lt;Group&gt;">
				<path id="&lt;Path&gt;" class="shp0" d="M81.9 62.77C76.46 63.82 69.87 68.01 64.12 67.35L63.7 71.84C79.89 76.37 81.83 91.87 81.42 107.41L18.06 107.41C18.06 107.41 18.05 107.41 18.05 107.4C18.47 100.24 17.08 92.86 20.15 86.12C23.48 78.81 30.14 73.72 37.65 71.35C37.8 69.34 37.81 69.26 37.95 67.25C33.33 64.94 29.76 61.9 27.54 57.34C27.26 56.77 26.68 56.48 25.79 56.48C22.81 56.95 23.68 59.2 22.84 58.89C20.41 57.99 19.58 52.21 19.36 51.73C4.63 47.72 -2.86 25.92 1.94 12.49C4.05 6.57 9.06 2.01 15.68 2.86C22.82 3.77 27.87 9.69 31.21 15.85C34.5 12.82 38.3 10.45 43.41 8.69C45.84 6.52 53.19 0.71 54.15 0.65L55.6 4.18C55.64 4.22 56.79 3.77 59.05 2.82L59.46 6.35C61.39 7.7 63.52 8.86 64.39 9.67C70.41 2.68 80.72 -4.11 86.24 7.1C91.68 18.16 85.45 34.17 77.2 43.32C79.26 44.56 81.24 45.75 81.44 45.73C82.13 45.67 82.69 45.8 83.16 46.04C94.11 48.47 92.45 60.74 81.9 62.77Z" />
			</g>
			<g id="&lt;Group&gt;">
				<path id="&lt;Compound Path&gt;" class="shp0" d="M120.58 93.58L120.58 107.41L115.19 107.41L116.22 101.64L111.47 105.04L105.94 101.33L104.9 107.41L100.59 107.41L100.59 93.58L106.14 93.58L106.06 93.62L112.58 100.73L117.64 95.32L117.93 93.58L120.58 93.58Z" />
				<path id="&lt;Compound Path&gt;" fill-rule="evenodd" class="shp0" d="M122.57 97.53L136.95 97.53L136.95 107.41L122.57 107.41L122.57 97.53ZM126.96 105.85L133.58 104.66L132.57 98.98L125.95 100.14L126.96 105.85Z" />
				<path id="&lt;Compound Path&gt;" class="shp0" d="M153.33 97.53L153.33 107.41L138.95 107.41L138.95 97.53L141.87 97.53L143.33 105.85L149.95 104.66L148.69 97.53L153.33 97.53Z" />
				<path id="&lt;Compound Path&gt;" class="shp0" d="M169.7 97.53L169.7 98.96L161.41 100.42L161.66 101.9L169.7 100.5L169.7 107.41L155.32 107.41L155.32 106.24L163.62 104.78L163.36 103.3L155.32 104.72L155.32 97.53L169.7 97.53Z" />
				<path id="&lt;Compound Path&gt;" fill-rule="evenodd" class="shp0" d="M186.07 97.53L186.07 102.43L174.72 104.43L174.99 106.03L186.07 104.07L186.07 107.41L171.7 107.41L171.7 97.53L186.07 97.53ZM174.38 102.75L181 101.56L180.76 100.32L174.18 101.48L174.38 102.75Z" />
				<path id="&lt;Compound Path&gt;" class="shp0" d="M211.41 93.58L211.41 99.35L205.15 98.26L203.53 107.41L199.25 107.41L201.01 97.51L192.99 96.11L192.99 93.58L211.41 93.58Z" />
				<path id="&lt;Compound Path&gt;" class="shp0" d="M227.79 97.53L227.79 100.58L225.67 100.97L225.38 99.39L217.79 100.71L218.98 107.41L213.41 107.41L213.41 97.53L227.79 97.53Z" />
				<path id="&lt;Compound Path&gt;" fill-rule="evenodd" class="shp0" d="M244.16 97.53L244.16 107.41L229.78 107.41L229.78 102.51L241.14 100.52L240.86 98.92L229.78 100.87L229.78 97.53L244.16 97.53ZM235.1 104.62L241.69 103.46L241.46 102.2L234.88 103.38L235.1 104.62Z" />
				<path id="&lt;Compound Path&gt;" fill-rule="evenodd" class="shp0" d="M260.46 97.53L260.46 102.99L249.14 104.98L249.57 107.41L246.16 107.41L246.16 97.53L260.46 97.53ZM248.8 103.08L254.83 102.04L254.47 100.08L248.45 101.13L248.8 103.08Z" />
				<path id="&lt;Compound Path&gt;" class="shp0" d="M287.22 93.58L287.22 107.41L281.65 107.41L282.38 103.26L273.12 101.62L272.11 107.41L267.23 107.41L267.23 93.58L274.54 93.58L273.63 98.8L282.89 100.44L284.1 93.58L287.22 93.58Z" />
				<path id="&lt;Compound Path&gt;" fill-rule="evenodd" class="shp0" d="M289.21 97.53L303.59 97.53L303.59 107.41L289.21 107.41L289.21 97.53ZM293.6 105.85L300.21 104.66L299.21 98.98L292.59 100.14L293.6 105.85Z" />
				<path id="&lt;Compound Path&gt;" class="shp0" d="M319.97 97.53L319.97 107.41L305.59 107.41L305.59 97.53L308.51 97.53L309.97 105.85L316.59 104.66L315.32 97.53L319.97 97.53Z" />
				<path id="&lt;Compound Path&gt;" class="shp0" d="M336.34 97.53L336.34 98.96L328.04 100.42L328.3 101.9L336.34 100.5L336.34 107.41L321.96 107.41L321.96 106.24L330.26 104.78L330 103.3L321.96 104.72L321.96 97.53L336.34 97.53Z" />
				<path id="&lt;Compound Path&gt;" fill-rule="evenodd" class="shp0" d="M352.71 97.53L352.71 102.43L341.35 104.43L341.63 106.03L352.71 104.07L352.71 107.41L338.33 107.41L338.33 97.53L352.71 97.53ZM341.02 102.75L347.64 101.56L347.4 100.32L340.82 101.48L341.02 102.75Z" />
			</g>
			<g id="&lt;Group&gt;">
				<path id="&lt;Compound Path&gt;" class="shp0" d="M180.83 33.06L180.83 88.36L159.27 88.36L163.37 65.29L144.41 78.88L122.29 64.03L118.1 88.36L100.88 88.36L100.88 33.06L123.08 33.06L122.77 33.22L148.84 61.66L169.06 40.01L170.25 33.06L180.83 33.06Z" />
				<path id="&lt;Compound Path&gt;" class="shp0" d="M262.44 33.06L262.44 56.13L237.4 51.78L230.92 88.36L213.78 88.36L220.81 48.78L188.73 43.17L188.73 33.06L262.44 33.06Z" />
				<path id="&lt;Compound Path&gt;" class="shp0" d="M350.3 33.06L350.3 88.36L328.02 88.36L330.94 71.77L293.89 65.21L289.86 88.36L270.34 88.36L270.34 33.06L299.58 33.06L295.94 53.92L332.99 60.47L337.81 33.06L350.3 33.06Z" />
			</g>
		</g>
	</g>
</svg>