<svg id="Layer_1" data-name="Layer 1" xmlns="http://www.w3.org/2000/svg" viewBox="0 0 200 250"><path d="M139.8,77.8a2.7,2.7,0,0,0-1.8-.3c-.2,0-2.3-1.3-4.5-2.6,8.8-9.7,15.4-26.6,9.6-38.4s-16.8-4.6-23.2,2.8c-.9-.9-3.1-2.1-5.2-3.6l-.4-3.7s-3.6,1.5-3.7,1.4l-1.5-3.7c-1,.1-8.8,6.2-11.4,8.5a36.2,36.2,0,0,0-12.9,7.6C81.3,39.3,75.9,33,68.3,32S56,36,53.8,42.3c-5.1,14.2,2.8,37.3,18.4,41.5.3.5,1.2,6.7,3.7,7.6.9.3,0-2,3.2-2.5a1.9,1.9,0,0,1,1.8.9c2.4,4.8,6.1,8,11,10.5l-.3,4.3c-7.9,2.5-15,7.9-18.5,15.6s-1.8,15-2.2,22.6H138c.4-16.5-1.6-32.9-18.8-37.7l.5-4.7c6.1.7,13-3.8,18.8-4.9C149.7,93.4,151.4,80.4,139.8,77.8Z"/><path d="M41.3,208.1v12.1H36.4l.7-3.6L29,215.1l-.9,5.1H23.8V208.1h6.4l-.8,4.5,8.1,1.5,1.1-6Z"/><path d="M43,208.1H60.5v12.1H43Zm12.9,10.3,1.2-7.1L49,209.9l-1.2,7Z"/><path d="M62.3,208.1H79.7v12.1H62.3Zm12.8,10.3,1.2-7.1-8.1-1.4-1.2,7Z"/><path d="M98.9,208.1h0l-2.1,12.1h-5l-6-1.1-.2,1.1H81.5V209.4l2.9.5.3-1.8Zm-5.8,9.5,1-5.7-6.8-1.2-1,5.7Z"/><path d="M119.1,208.1l-1.1,6.4,4.2.7v5h-4.6l.6-3.3-8.1-1.4-.9,4.7h-4.4V208.1Zm-3.6,5.9.4-2.4-5-.9-.4,2.5Z"/><path d="M140,208.1v12.1h-4.6l1-5.3-7.3-1.3-1.2,6.7H124l2.1-12.1Zm-3.3,4.9.3-1.4-7.3-1.3-.2,1.4Z"/><path d="M157,208.1v5l-5.5-.9-1.4,8h-3.8l1.5-8.7-7-1.2v-2.2Z"/><path d="M176.2,208.1v4l-9.4-1.7-.5,2.6,9.9,1.7v5.5H158.7v-4l9.5,1.7.5-2.5-10-1.8v-5.5Z"/><polygon points="80.9 174.7 47.1 168.7 50.4 149.7 23.8 149.7 23.8 200.1 41.6 200.1 45.3 179 79 185 76.4 200.1 96.7 200.1 96.7 149.7 85.3 149.7 80.9 174.7"/><path d="M158.6,176.2l4.6-26.5H104.1v49.9h18.4l3.4-19.4,33.5,6-2.3,13.4h19.1V179.2Zm-10.4-1.9-20.5-3.6,1.7-10.1,20.6,3.6Z"/></svg>