<svg id="Layer_1" data-name="Layer 1"
  xmlns="http://www.w3.org/2000/svg" viewBox="0 0 210.17 173.52">
  <path d="M992.43,4535.74a3.19,3.19,0,0,0-1.69-.31,39.55,39.55,0,0,1-4.15-2.36c8.08-9,14.18-24.64,8.85-35.47-5.41-11-15.5-4.33-21.4,2.51-.85-.79-2.94-1.92-4.84-3.25l-.39-3.46s-3.32,1.4-3.38,1.34l-1.42-3.46c-.94.05-8.14,5.75-10.52,7.87a32.91,32.91,0,0,0-12,7c-3.26-6-8.21-11.83-15.21-12.73-6.48-.83-11.38,3.63-13.46,9.44-4.69,13.15,2.65,34.5,17.07,38.43.22.47,1,6.13,3.41,7,.83.3,0-1.9,2.89-2.36a1.83,1.83,0,0,1,1.71.83c2.18,4.47,5.67,7.45,10.2,9.71l-.29,4c-7.36,2.32-13.88,7.31-17.14,14.46-3,6.61-1.65,13.83-2.06,20.85h62.07c.4-15.22-1.5-30.4-17.36-34.84l.42-4.4c5.63.65,12.08-3.46,17.41-4.48C1001.52,4550.14,1003.15,4538.12,992.43,4535.74Z" transform="translate(-854.91 -4491.28)"/>
  <path d="M871.58,4653.27v11.53h-4.5l.86-4.81-4,2.83-4.61-3.09-.88,5.07h-3.59v-11.53h4.63l-.06,0,5.43,5.92,4.21-4.51.25-1.45Z" transform="translate(-854.91 -4491.28)"/>
  <path d="M873.24,4656.57h12v8.23h-12Zm3.65,6.93,5.52-1-.84-4.74-5.51,1Z" transform="translate(-854.91 -4491.28)"/>
  <path d="M898.88,4656.57v8.23h-12v-8.23h2.44l1.21,6.93,5.52-1-1-5.94Z" transform="translate(-854.91 -4491.28)"/>
  <path d="M912.52,4656.57v1.18l-6.91,1.22.21,1.24,6.7-1.17v5.76h-12v-1l6.91-1.22-.21-1.24-6.7,1.19v-6Z" transform="translate(-854.91 -4491.28)"/>
  <path d="M926.17,4656.57v4.08l-9.46,1.66.23,1.34,9.23-1.63v2.78h-12v-8.23Zm-9.74,4.34,5.51-1-.2-1-5.48,1Z" transform="translate(-854.91 -4491.28)"/>
  <path d="M947.3,4653.27v4.81l-5.22-.9-1.35,7.62h-3.57l1.46-8.25-6.68-1.17v-2.11Z" transform="translate(-854.91 -4491.28)"/>
  <path d="M961,4656.57v2.53l-1.76.33-.25-1.32-6.32,1.11,1,5.58H949v-8.23Z" transform="translate(-854.91 -4491.28)"/>
  <path d="M974.6,4656.57v8.23h-12v-4.08l9.47-1.67-.23-1.33-9.24,1.63v-2.78Zm-7.56,5.91,5.5-1-.2-1.06-5.48,1Z" transform="translate(-854.91 -4491.28)"/>
  <path d="M988.18,4656.57v4.54l-9.43,1.66.36,2h-2.85v-8.23Zm-9.71,4.62,5-.87-.3-1.63-5,.87Z" transform="translate(-854.91 -4491.28)"/>
  <path d="M1010.49,4653.27v11.53h-4.64l.61-3.46-7.73-1.37-.84,4.83h-4.06v-11.53h6.09l-.76,4.35,7.72,1.37,1-5.72Z" transform="translate(-854.91 -4491.28)"/>
  <path d="M1012.15,4656.57h12v8.23h-12Zm3.66,6.93,5.51-1-.84-4.74-5.51,1Z" transform="translate(-854.91 -4491.28)"/>
  <path d="M1037.79,4656.57v8.23h-12v-8.23h2.44l1.22,6.93,5.51-1-1-5.94Z" transform="translate(-854.91 -4491.28)"/>
  <path d="M1051.44,4656.57v1.18l-6.92,1.22.22,1.24,6.7-1.17v5.76h-12v-1l6.92-1.22-.22-1.24-6.7,1.19v-6Z" transform="translate(-854.91 -4491.28)"/>
  <path d="M1065.09,4656.57v4.08l-9.47,1.66.23,1.34,9.24-1.63v2.78h-12v-8.23Zm-9.75,4.34,5.51-1-.19-1-5.49,1Z" transform="translate(-854.91 -4491.28)"/>
  <path d="M922.29,4602.21v46.6H904.11l3.46-19.44-16,11.45L873,4628.31l-3.53,20.5H854.91v-46.6h18.71l-.27.13,22,24,17-18.24,1-5.86Z" transform="translate(-854.91 -4491.28)"/>
  <path d="M991.06,4602.21v19.44L970,4618l-5.46,30.82H950.05l5.92-33.35-27-4.73v-8.52Z" transform="translate(-854.91 -4491.28)"/>
  <path d="M1065.09,4602.21v46.6h-18.78l2.47-14-31.23-5.53-3.39,19.51H997.71v-46.6h24.64l-3.07,17.57,31.23,5.53,4.06-23.1Z" transform="translate(-854.91 -4491.28)"/>
</svg>