<svg id="Layer_1" data-name="Layer 1" xmlns="http://www.w3.org/2000/svg" viewBox="0 0 360 315.69"><defs><style>.cls-1{fill:#ffc629;}</style></defs><path class="cls-1" d="M110.54,174.12a9,9,0,0,1-4.37,7.7v41.84a14,14,0,0,1,4.37-.71,13.72,13.72,0,0,1,13.72,13.19l77.49.32a7.84,7.84,0,0,1,15.68.06l29.58.13,2.61-.58v-22a11.28,11.28,0,0,1,0-22.54V119.06a6.28,6.28,0,0,1-1.85.28,6.14,6.14,0,1,1,0-12.27,6,6,0,0,1,1.85.29V93.63H209.55a10.23,10.23,0,0,1-20.39,0h-83v72.8A9,9,0,0,1,110.54,174.12Zm117.34-39a13.69,13.69,0,1,1-13.73,13.69A13.71,13.71,0,0,1,227.88,135.1ZM166,120a3.91,3.91,0,1,1-3.92,3.91A3.91,3.91,0,0,1,166,120Zm-32.87-14.59a7.83,7.83,0,1,1-7.84,7.83A7.83,7.83,0,0,1,133.12,105.38Zm-2.86,87.49a5,5,0,1,1-5,5A5,5,0,0,1,130.26,192.87Z"/></svg>