<svg id="Layer_1" data-name="Layer 1" xmlns="http://www.w3.org/2000/svg" viewBox="0 0 360 980.32"><defs><style>.cls-1{fill:none;}.cls-2{fill:#ffc629;}</style></defs><ellipse class="cls-1" cx="55.34" cy="370.06" rx="8.08" ry="7.96"/><ellipse class="cls-1" cx="55.34" cy="183.47" rx="8.77" ry="8.12"/><ellipse class="cls-1" cx="59.52" cy="275.41" rx="18.23" ry="16.89"/><ellipse class="cls-1" cx="279.52" cy="255.18" rx="7.62" ry="7.06"/><path class="cls-1" d="M304.81,507.7a6.92,6.92,0,1,0,0-13.8,7.73,7.73,0,0,0-5.42,2.17,11,11,0,0,0-2,5.64A7.29,7.29,0,0,0,304.81,507.7Z"/><ellipse class="cls-1" cx="55.34" cy="585.31" rx="8.77" ry="8.12"/><ellipse class="cls-1" cx="55.34" cy="771.9" rx="8.08" ry="7.96"/><ellipse class="cls-1" cx="304.81" cy="98.95" rx="7.45" ry="6.9"/><ellipse class="cls-1" cx="308.64" cy="904.21" rx="11.23" ry="11.07"/><path class="cls-1" d="M96.91,909.06a8,8,0,1,0,8.08,8A8,8,0,0,0,96.91,909.06Z"/><path class="cls-1" d="M287.16,850a7.54,7.54,0,1,0,7.65,7.54A7.59,7.59,0,0,0,287.16,850Z"/><path class="cls-1" d="M287.14,657a7.64,7.64,0,1,0-7.62,7.06A7.35,7.35,0,0,0,287.14,657Z"/><ellipse class="cls-1" cx="59.52" cy="677.25" rx="18.23" ry="16.89"/><path class="cls-2" d="M319.87,196.53a12.18,12.18,0,0,1,7.16,2.29V72.5a19,19,0,0,1-7.16,1.38c-9.91,0-17.94-7.43-17.94-16.61a15.86,15.86,0,0,1,4.46-11H236.71c-1.15,5.87-6.69,10.31-13.35,10.31S211.15,52.19,210,46.32H93.7c-1.23,10.84-11.12,19.3-23.15,19.3S48.62,57.16,47.4,46.32H34v54.59a10.51,10.51,0,0,1,0,20V401.68a15.64,15.64,0,0,1,0,29.07v72a10.51,10.51,0,0,1,0,20V803.52a15.64,15.64,0,0,1,0,29.07v67.26c9.18,0,16.63,7.69,16.63,17.17a17.33,17.33,0,0,1-7.15,14.11H166.67a15.45,15.45,0,0,1-.23-2.65,15.95,15.95,0,0,1,31.89,0,15.45,15.45,0,0,1-.23,2.65H327V790.21A19.25,19.25,0,1,1,327,752V617.66a12.17,12.17,0,0,1-7.16,2.28c-6.43,0-11.64-4.83-11.64-10.78s5.21-10.78,11.64-10.78a12.17,12.17,0,0,1,7.16,2.28V388.37A19.27,19.27,0,1,1,324.85,350c.74,0,1.47,0,2.18.12V215.81a12.18,12.18,0,0,1-7.16,2.29c-6.43,0-11.64-4.83-11.64-10.79S313.44,196.53,319.87,196.53ZM299.39,496.07a7.73,7.73,0,0,1,5.42-2.17,6.92,6.92,0,1,1,0,13.8,7.29,7.29,0,0,1-7.38-6A11,11,0,0,1,299.39,496.07ZM279.52,248.12a7.08,7.08,0,1,1-7.62,7.06A7.35,7.35,0,0,1,279.52,248.12ZM64.12,585.31c0,4.49-3.93,8.13-8.78,8.13s-8.77-3.64-8.77-8.13,3.93-8.12,8.77-8.12S64.12,580.83,64.12,585.31ZM55.34,378a8,8,0,1,1,8.08-8A8,8,0,0,1,55.34,378Zm0-202.68c4.85,0,8.78,3.64,8.78,8.13s-3.93,8.12-8.78,8.12-8.77-3.63-8.77-8.12S50.5,175.34,55.34,175.34ZM41.28,275.41c0-9.33,8.17-16.89,18.24-16.89s18.23,7.56,18.23,16.89S69.59,292.3,59.52,292.3,41.28,284.74,41.28,275.41ZM55.34,779.86a8,8,0,1,1,8.08-8A8,8,0,0,1,55.34,779.86Zm4.18-85.72c-10.07,0-18.24-7.56-18.24-16.89s8.17-16.89,18.24-16.89,18.23,7.57,18.23,16.89S69.59,694.14,59.52,694.14ZM96.91,925a8,8,0,1,1,8.08-8A8,8,0,0,1,96.91,925Zm175-268a7.64,7.64,0,1,1,7.62,7.06A7.35,7.35,0,0,1,271.9,657Zm15.26,208.06a7.54,7.54,0,1,1,7.65-7.53A7.58,7.58,0,0,1,287.16,865.08Zm21.48,28a11.08,11.08,0,1,1-11.24,11.08A11.16,11.16,0,0,1,308.64,893.13Zm-3.83-787.28a6.92,6.92,0,1,1,7.44-6.9A7.19,7.19,0,0,1,304.81,105.85Z"/></svg>