<svg id="Layer_1" data-name="Layer 1"
  xmlns="http://www.w3.org/2000/svg" viewBox="0 0 89.59 177.23">
  <path d="M949.35,4725.91a17.79,17.79,0,0,1-1.59,3.58,5.45,5.45,0,0,0-.4,3.88,28.67,28.67,0,0,1,.76,3.57c.17,1.68-.67,3-1.33,4.42a10.39,10.39,0,0,1-3.19,4,4.66,4.66,0,0,0-1,1.24,3.24,3.24,0,0,1-4.22,1.5,5.76,5.76,0,0,1-3.22-2.35,2.48,2.48,0,0,1-.32-2.15,2.45,2.45,0,0,0-.77-2.9c-.07-.06-.13-.13-.2-.2a3.7,3.7,0,0,1-.6-5.18c.88-1.42,2.17-2.52,3.16-3.85a75,75,0,0,1,6.9-8.3,19.78,19.78,0,0,1,2.51-2.15,2.17,2.17,0,0,1,3.59,1.45A7.13,7.13,0,0,1,949.35,4725.91Z" transform="translate(-923.29 -4720.53)"/>
  <path d="M960.77,4782a6.44,6.44,0,0,1-.93,1.9c-.9,1.48-1.8,3-2.69,4.43a3.67,3.67,0,0,1-1.63,1.49,2.73,2.73,0,0,1-3.4-.63,12.44,12.44,0,0,1-2.8-7.62c0-1.91,1.25-3.26,2.55-4.51a27.69,27.69,0,0,1,2.67-2.16,4.15,4.15,0,0,1,3.42-.59,1,1,0,0,1,.66.48,16.82,16.82,0,0,1,2.07,4.13A5.21,5.21,0,0,1,960.77,4782Z" transform="translate(-923.29 -4720.53)"/>
  <path d="M956.24,4798.07c.63-2.24,1.83-3.14,4.14-3.1.88,0,1.22.69,1.52,1.36a7.86,7.86,0,0,1,.45,3.87,10.4,10.4,0,0,1-1,3.84,2.32,2.32,0,0,1-4.24.31A7.93,7.93,0,0,1,956.24,4798.07Z" transform="translate(-923.29 -4720.53)"/>
  <path d="M933.51,4756a6.72,6.72,0,0,1,1-2.22,2.23,2.23,0,0,1,4,.33,5.6,5.6,0,0,1,.35,3.43,9.22,9.22,0,0,1-1.89,4.62c-1.19,1.48-2.71,1.26-3.42-.5A9.35,9.35,0,0,1,933.51,4756Z" transform="translate(-923.29 -4720.53)"/>
  <path d="M931.57,4750.08a2.36,2.36,0,0,1,1.61,2.14,9.55,9.55,0,0,1-2.56,6.56,2.22,2.22,0,0,1-2.25.82,2.3,2.3,0,0,1-1.68-2.05A7.77,7.77,0,0,1,929,4751a3.39,3.39,0,0,1,1.77-1A1.34,1.34,0,0,1,931.57,4750.08Z" transform="translate(-923.29 -4720.53)"/>
  <path d="M949.72,4801a7.31,7.31,0,0,1-1.18,2.53,2.2,2.2,0,0,1-2.12,1,2.37,2.37,0,0,1-2-1.69,6.47,6.47,0,0,1,.3-4.52,5.87,5.87,0,0,1,1.6-2.36,2.73,2.73,0,0,1,2.65-.38,1.24,1.24,0,0,1,.77.86A8.45,8.45,0,0,1,949.72,4801Z" transform="translate(-923.29 -4720.53)"/>
  <path d="M930.25,4746.41a6.51,6.51,0,0,1-1.76,3.13,2.19,2.19,0,0,1-3.23.05,2.71,2.71,0,0,1-.53-1.71,10.19,10.19,0,0,1,1.51-5.75c1-1.62,2.77-1.56,3.72.11A5.41,5.41,0,0,1,930.25,4746.41Z" transform="translate(-923.29 -4720.53)"/>
  <path d="M941.08,4756.26a6.9,6.9,0,0,1,1.08-2.38,2.08,2.08,0,0,1,.47-.51c1.23-.82,1.52-.71,2.2.38a7.41,7.41,0,0,1,.88,4.48,7.61,7.61,0,0,1-1.05,3.74,2.11,2.11,0,0,1-2,1.1,1.89,1.89,0,0,1-1.61-1.39,8,8,0,0,1-.27-4.15C940.85,4757.12,941,4756.71,941.08,4756.26Z" transform="translate(-923.29 -4720.53)"/>
  <path d="M951.25,4802.44a4.68,4.68,0,0,1,1.6-2.58,1.33,1.33,0,0,1,2.09.15,3.64,3.64,0,0,1,.84,1.9,7.81,7.81,0,0,1-.71,5.45,2.06,2.06,0,0,1-2.15,1.16,2,2,0,0,1-1.71-1.65A8.64,8.64,0,0,1,951.25,4802.44Z" transform="translate(-923.29 -4720.53)"/>
  <path d="M943.09,4788.17a12.38,12.38,0,0,1,.69-1.84c.29-.69.71-1.28,1.49-1.28a2.1,2.1,0,0,1,1.88,1.17,4.06,4.06,0,0,1,.28,2.74,9.68,9.68,0,0,1-1.91,4.32,3.12,3.12,0,0,1-.43.46c-.48.39-1,.77-1.65.5s-.78-.85-.85-1.43A12.58,12.58,0,0,1,943.09,4788.17Z" transform="translate(-923.29 -4720.53)"/>
  <path d="M947.81,4746.75c.46-1.69,1-2.23,2-2.34a1.07,1.07,0,0,1,1.13.51,8.06,8.06,0,0,1,1.16,6.75,1.92,1.92,0,0,1-1.61,1.48,1.81,1.81,0,0,1-1.91-1A7.8,7.8,0,0,1,947.81,4746.75Z" transform="translate(-923.29 -4720.53)"/>
  <path d="M966,4790.92a2.71,2.71,0,0,1-.55,1.13,1.67,1.67,0,0,1-2.43.16,6.49,6.49,0,0,1-1.6-6.07,2.31,2.31,0,0,1,1.92-1.43c.64-.15,1,.36,1.35.81A6.52,6.52,0,0,1,966,4790.92Z" transform="translate(-923.29 -4720.53)"/>
  <path d="M927.74,4765.37a6.07,6.07,0,0,1-1.27-3.24c-.24-1.27-.23-1.27,1-1,1.5.29,1.5.29,1.1,1.72A16.22,16.22,0,0,1,927.74,4765.37Z" transform="translate(-923.29 -4720.53)"/>
  <path d="M924.68,4754.68a1.86,1.86,0,0,1-1.2-1.48,3.84,3.84,0,0,1-.11-1.11c0-.46-.28-1.08.18-1.34s2,.46,2.25,1a.25.25,0,0,1,0,.31A5.78,5.78,0,0,0,924.68,4754.68Z" transform="translate(-923.29 -4720.53)"/>
  <path d="M933.08,4768.68c0-.78,0-1.43,0-2.07a12.12,12.12,0,0,0-.11-1.47c-.1-.79-.11-.81.69-.57a3.47,3.47,0,0,1,1.42.54c.31.26.44.48.12.87A13.91,13.91,0,0,1,933.08,4768.68Z" transform="translate(-923.29 -4720.53)"/>
  <path d="M949.61,4759.85a16.37,16.37,0,0,1-.47-3.75c0-.3.15-.36.38-.36.49,0,1,0,1.46,0,.3,0,.29.26.27.47A9.53,9.53,0,0,1,949.61,4759.85Z" transform="translate(-923.29 -4720.53)"/>
  <path d="M941.41,4801a4.52,4.52,0,0,1-.22-3.78c.13-.37.87-.41,1.41-.12s.39.5.14.85a10.08,10.08,0,0,0-.88,2.27A1.66,1.66,0,0,1,941.41,4801Z" transform="translate(-923.29 -4720.53)"/>
  <path d="M941.73,4765c.94.24.92.24.53,1.18a9.06,9.06,0,0,1-1.41,2.33c-.07.08-.1.23-.25.19s-.14-.17-.14-.29c.06-1.11.13-2.23.19-3.34,0-.21.13-.28.33-.23Z" transform="translate(-923.29 -4720.53)"/>
  <path d="M945.22,4810.89a10.59,10.59,0,0,1-1-3.29c-.06-.29.06-.42.36-.46a4.86,4.86,0,0,1,1.32.07c.28,0,.31.24.26.47C946,4808.77,945.45,4809.77,945.22,4810.89Z" transform="translate(-923.29 -4720.53)"/>
  <path d="M950.79,4814a16,16,0,0,0,.11-3.31c0-.07,0-.18,0-.2a1.48,1.48,0,0,1,1.2.08c.27.1.7.25.55.59-.43,1-.69,2.14-1.69,2.82C951,4814,950.9,4814,950.79,4814Z" transform="translate(-923.29 -4720.53)"/>
  <path d="M964,4797.48a6.24,6.24,0,0,1-.86-2.43.6.6,0,0,1,.32-.64,2.34,2.34,0,0,1,1.33-.38c.39,0,.67.16.39.6C964.65,4795.49,964.56,4796.53,964,4797.48Z" transform="translate(-923.29 -4720.53)"/>
  <path d="M959.9,4809a4.7,4.7,0,0,1-1,1.48c-.27.24-.46.19-.51-.19s-.12-1-.16-1.53c0-.22-.07-.51.23-.59a1.42,1.42,0,0,1,1.27.07A.6.6,0,0,1,959.9,4809Z" transform="translate(-923.29 -4720.53)"/>
  <path d="M986.83,4809.67a17.54,17.54,0,0,0,1.59,3.58,5.45,5.45,0,0,1,.4,3.88,27.29,27.29,0,0,0-.75,3.57c-.18,1.68.66,3,1.32,4.43a10.44,10.44,0,0,0,3.19,4,4.55,4.55,0,0,1,1,1.25,3.25,3.25,0,0,0,4.22,1.5,5.78,5.78,0,0,0,3.22-2.36,2.47,2.47,0,0,0,.32-2.14,2.46,2.46,0,0,1,.77-2.91c.07-.06.13-.13.2-.2a3.69,3.69,0,0,0,.6-5.18c-.88-1.42-2.17-2.51-3.16-3.85a75,75,0,0,0-6.9-8.3,20.55,20.55,0,0,0-2.51-2.14,2.16,2.16,0,0,0-3.59,1.44A7.13,7.13,0,0,0,986.83,4809.67Z" transform="translate(-923.29 -4720.53)"/>
  <path d="M975.41,4865.8a6.44,6.44,0,0,0,.93,1.9l2.7,4.43a3.6,3.6,0,0,0,1.62,1.49,2.73,2.73,0,0,0,3.4-.63,12.44,12.44,0,0,0,2.8-7.62c0-1.91-1.25-3.26-2.55-4.51a27.69,27.69,0,0,0-2.67-2.16,4.15,4.15,0,0,0-3.42-.59,1,1,0,0,0-.66.48,16.82,16.82,0,0,0-2.07,4.13A5.21,5.21,0,0,0,975.41,4865.8Z" transform="translate(-923.29 -4720.53)"/>
  <path d="M979.94,4881.83c-.63-2.24-1.83-3.14-4.14-3.09-.88,0-1.22.68-1.51,1.36a7.7,7.7,0,0,0-.46,3.86,10.59,10.59,0,0,0,1,3.84c1,1.93,3,2.1,4.24.31A7.93,7.93,0,0,0,979.94,4881.83Z" transform="translate(-923.29 -4720.53)"/>
  <path d="M1002.67,4839.76a6.63,6.63,0,0,0-1-2.22,2.23,2.23,0,0,0-3.95.32,5.6,5.6,0,0,0-.35,3.43,9.22,9.22,0,0,0,1.89,4.62c1.19,1.48,2.72,1.26,3.42-.5A9.31,9.31,0,0,0,1002.67,4839.76Z" transform="translate(-923.29 -4720.53)"/>
  <path d="M1004.61,4833.84A2.38,2.38,0,0,0,1003,4836a8.25,8.25,0,0,0,.8,3.88,8.1,8.1,0,0,0,1.76,2.68,2.2,2.2,0,0,0,2.25.82,2.3,2.3,0,0,0,1.68-2,7.77,7.77,0,0,0-2.27-6.51,3.36,3.36,0,0,0-1.76-1A1.37,1.37,0,0,0,1004.61,4833.84Z" transform="translate(-923.29 -4720.53)"/>
  <path d="M986.46,4884.8a7.31,7.31,0,0,0,1.18,2.53,2.23,2.23,0,0,0,2.12,1,2.39,2.39,0,0,0,2-1.7,6.47,6.47,0,0,0-.3-4.52,5.77,5.77,0,0,0-1.6-2.36,2.7,2.7,0,0,0-2.65-.37,1.25,1.25,0,0,0-.77.85A8.45,8.45,0,0,0,986.46,4884.8Z" transform="translate(-923.29 -4720.53)"/>
  <path d="M1005.93,4830.17a6.46,6.46,0,0,0,1.76,3.13,2.2,2.2,0,0,0,3.23.06,2.76,2.76,0,0,0,.53-1.72,10.21,10.21,0,0,0-1.51-5.75c-1-1.62-2.77-1.56-3.72.12A5.43,5.43,0,0,0,1005.93,4830.17Z" transform="translate(-923.29 -4720.53)"/>
  <path d="M995.1,4840a6.72,6.72,0,0,0-1.08-2.38,2.08,2.08,0,0,0-.47-.51c-1.23-.82-1.52-.71-2.2.38a7.43,7.43,0,0,0-.88,4.48,7.58,7.58,0,0,0,1,3.74,2.11,2.11,0,0,0,2,1.1,1.89,1.89,0,0,0,1.61-1.38,8,8,0,0,0,.27-4.15C995.33,4840.88,995.2,4840.47,995.1,4840Z" transform="translate(-923.29 -4720.53)"/>
  <path d="M984.93,4886.2a4.68,4.68,0,0,0-1.6-2.58,1.34,1.34,0,0,0-2.09.15,3.68,3.68,0,0,0-.84,1.9,7.86,7.86,0,0,0,.71,5.45,2.05,2.05,0,0,0,2.15,1.16,2,2,0,0,0,1.71-1.64A8.68,8.68,0,0,0,984.93,4886.2Z" transform="translate(-923.29 -4720.53)"/>
  <path d="M993.09,4871.93a12.38,12.38,0,0,0-.69-1.84c-.29-.69-.71-1.28-1.49-1.28A2.12,2.12,0,0,0,989,4870a4.06,4.06,0,0,0-.28,2.74,9.63,9.63,0,0,0,1.91,4.32,3.12,3.12,0,0,0,.43.46c.48.39,1,.77,1.65.5s.78-.85.85-1.43A12.58,12.58,0,0,0,993.09,4871.93Z" transform="translate(-923.29 -4720.53)"/>
  <path d="M988.37,4830.52c-.46-1.7-1-2.24-2-2.35a1,1,0,0,0-1.12.51,8,8,0,0,0-1.16,6.76,1.91,1.91,0,0,0,1.6,1.48,1.84,1.84,0,0,0,1.91-1A7.82,7.82,0,0,0,988.37,4830.52Z" transform="translate(-923.29 -4720.53)"/>
  <path d="M970.21,4874.68a2.65,2.65,0,0,0,.55,1.13,1.67,1.67,0,0,0,2.43.16,6.52,6.52,0,0,0,1.61-6.07,2.31,2.31,0,0,0-1.93-1.42c-.64-.16-1,.35-1.35.81A6.53,6.53,0,0,0,970.21,4874.68Z" transform="translate(-923.29 -4720.53)"/>
  <path d="M1008.44,4849.13a6,6,0,0,0,1.27-3.24c.24-1.26.24-1.26-1-1-1.5.28-1.5.28-1.09,1.72A15.39,15.39,0,0,0,1008.44,4849.13Z" transform="translate(-923.29 -4720.53)"/>
  <path d="M1011.5,4838.44a1.86,1.86,0,0,0,1.2-1.48,4.15,4.15,0,0,0,.12-1.11c0-.46.27-1.07-.19-1.34s-2,.46-2.25,1a.26.26,0,0,0,0,.3A5.78,5.78,0,0,1,1011.5,4838.44Z" transform="translate(-923.29 -4720.53)"/>
  <path d="M1003.1,4852.45c0-.79-.05-1.44,0-2.08a11.81,11.81,0,0,1,.11-1.46c.1-.8.11-.81-.69-.58a3.52,3.52,0,0,0-1.42.54c-.31.26-.44.49-.12.87A14,14,0,0,0,1003.1,4852.45Z" transform="translate(-923.29 -4720.53)"/>
  <path d="M986.57,4843.61a16.36,16.36,0,0,0,.47-3.74c0-.3-.15-.37-.38-.37-.49,0-1,0-1.46,0-.3,0-.29.26-.26.47A9.36,9.36,0,0,0,986.57,4843.61Z" transform="translate(-923.29 -4720.53)"/>
  <path d="M994.77,4884.74A4.5,4.5,0,0,0,995,4881c-.13-.38-.87-.42-1.41-.12s-.39.5-.14.84a10.08,10.08,0,0,1,.88,2.27A1.66,1.66,0,0,0,994.77,4884.74Z" transform="translate(-923.29 -4720.53)"/>
  <path d="M994.45,4848.74c-.93.24-.92.24-.53,1.19a9.17,9.17,0,0,0,1.41,2.32c.07.08.1.23.25.19s.14-.17.14-.28c-.06-1.12-.13-2.23-.19-3.35,0-.21-.13-.28-.33-.23Z" transform="translate(-923.29 -4720.53)"/>
  <path d="M991,4894.65a10.81,10.81,0,0,0,1-3.29c.05-.29-.07-.42-.37-.46a5.3,5.3,0,0,0-1.32.07c-.28,0-.3.24-.26.48C990.21,4892.54,990.73,4893.53,991,4894.65Z" transform="translate(-923.29 -4720.53)"/>
  <path d="M985.39,4897.76a16,16,0,0,1-.11-3.31c0-.07,0-.18,0-.2a1.52,1.52,0,0,0-1.2.08c-.27.11-.69.25-.55.59.43,1,.7,2.14,1.69,2.82C985.22,4897.77,985.28,4897.75,985.39,4897.76Z" transform="translate(-923.29 -4720.53)"/>
  <path d="M972.18,4881.24a6.24,6.24,0,0,0,.86-2.43.6.6,0,0,0-.32-.64,2.34,2.34,0,0,0-1.33-.38c-.39,0-.67.16-.39.6C971.53,4879.25,971.62,4880.29,972.18,4881.24Z" transform="translate(-923.29 -4720.53)"/>
  <path d="M976.28,4892.72a4.75,4.75,0,0,0,1,1.48c.27.24.46.19.51-.19s.12-1,.16-1.52c0-.23.07-.52-.23-.59a1.39,1.39,0,0,0-1.27.06A.6.6,0,0,0,976.28,4892.72Z" transform="translate(-923.29 -4720.53)"/>
</svg>