<svg version="1.2" baseProfile="tiny-ps"
	xmlns="http://www.w3.org/2000/svg" viewBox="0 0 610 1006" width="610" height="1006">
	<title>Layer 1</title>
	<style>
		tspan { white-space:pre }
		.shp0 { fill: #FFC629 }
	</style>
	<g id="Layer 1">
		<path id="&lt;Compound Path&gt;" fill-rule="evenodd" class="shp0" d="M275.8 1000.43C275.8 1002.31 275.97 1004.15 276.28 1005.94L20.41 1005.94C29.37 999.48 35.24 988.74 35.24 976.57C35.24 956.81 19.78 940.8 0.71 940.8L0.71 800.72C12.74 795.81 21.21 784.11 21.21 770.45C21.21 756.78 12.74 745.08 0.71 740.17L0.71 155.41C9.61 152.1 15.9 144.01 15.9 134.56C15.9 125.11 9.61 117.03 0.71 113.71L0.71 0.02L28.59 0.02C31.13 22.6 51.69 40.21 76.67 40.21C101.65 40.21 122.2 22.6 124.74 0.02L366.26 0.02C368.65 12.23 380.16 21.5 394 21.5C407.84 21.5 419.34 12.23 421.73 0.02L566.42 0.02C560.67 6.11 557.17 14.08 557.17 22.82C557.17 41.93 573.85 57.43 594.42 57.43C599.71 57.43 604.73 56.4 609.29 54.55L609.29 317.65C605.19 314.67 600.03 312.89 594.42 312.89C581.07 312.89 570.25 322.94 570.25 335.34C570.25 347.74 581.07 357.8 594.42 357.8C600.03 357.8 605.19 356.02 609.29 353.04L609.29 632.75C607.8 632.59 606.3 632.5 604.77 632.5C582.37 632.5 564.21 650.45 564.21 672.6C564.21 694.75 582.37 712.7 604.77 712.7C606.3 712.7 607.8 712.61 609.29 712.45L609.29 1005.94L341.56 1005.94C341.87 1004.15 342.03 1002.31 342.03 1000.43C342.03 982.35 327.21 967.69 308.92 967.69C290.63 967.69 275.8 982.35 275.8 1000.43ZM578.6 109.64C578.6 101.71 571.68 95.27 563.14 95.27C554.6 95.27 547.67 101.71 547.67 109.64C547.67 117.57 554.6 124.01 563.14 124.01C571.68 124.01 578.6 117.57 578.6 109.64ZM63.31 285.67C63.31 276.33 55.16 268.75 45.1 268.75C35.04 268.75 26.88 276.33 26.88 285.67C26.88 295.02 35.04 302.6 45.1 302.6C55.16 302.6 63.31 295.02 63.31 285.67ZM526.45 435.04C526.45 426.92 519.36 420.33 510.62 420.33C501.88 420.33 494.79 426.92 494.79 435.04C494.79 443.16 501.88 449.74 510.62 449.74C519.36 449.74 526.45 443.16 526.45 435.04ZM91.63 477.17C91.63 457.74 74.68 441.99 53.77 441.99C32.85 441.99 15.9 457.74 15.9 477.17C15.9 496.6 32.85 512.35 53.77 512.35C74.68 512.35 91.63 496.6 91.63 477.17ZM61.87 674.31C61.87 665.15 54.36 657.73 45.1 657.73C35.84 657.73 28.33 665.15 28.33 674.31C28.33 683.47 35.84 690.89 45.1 690.89C54.36 690.89 61.87 683.47 61.87 674.31ZM542.37 852.69C542.37 844.02 535.26 837 526.49 837C517.73 837 510.62 844.02 510.62 852.69C510.62 861.36 517.73 868.38 526.49 868.38C535.26 868.38 542.37 861.36 542.37 852.69ZM571.09 972.94C583.97 972.94 594.42 962.61 594.42 949.87C594.42 937.14 583.97 926.81 571.09 926.81C558.2 926.81 547.76 937.14 547.76 949.87C547.76 962.61 558.2 972.94 571.09 972.94ZM131.42 959.99C122.16 959.99 114.65 967.41 114.65 976.57C114.65 985.73 122.16 993.15 131.42 993.15C140.69 993.15 148.19 985.73 148.19 976.57C148.19 967.41 140.69 959.99 131.42 959.99Z" />
	</g>
</svg>