<svg version="1.2" baseProfile="tiny-ps"
	xmlns="http://www.w3.org/2000/svg" viewBox="0 0 1924 484" width="1924" height="484">
	<title>Layer 1</title>
	<style>
		tspan { white-space:pre }
		.shp0 { fill: #FFC629 }
	</style>
	<g id="Layer 1">
		<g id="&lt;Group&gt;">
			<path id="&lt;Compound Path&gt;" fill-rule="evenodd" class="shp0" d="M1922.74 0.32L1922.74 161.67L1889.67 163.64C1887.54 160.19 1884.99 156.93 1882 153.93C1861.28 133.21 1827.68 133.21 1806.96 153.93C1802.4 158.5 1798.85 163.69 1796.29 169.22L1177 206.22C1175.56 188.66 1160.85 174.85 1142.91 174.85C1124.02 174.85 1108.7 190.17 1108.7 209.06C1108.7 209.48 1108.72 209.89 1108.73 210.3L341.07 256.17C330.12 238.33 310.43 226.43 287.96 226.43C262.84 226.43 241.2 241.3 231.35 262.72L1.26 276.47L1.26 67.74C7.62 69.63 14.35 70.66 21.33 70.66C60.18 70.66 91.67 39.17 91.67 0.32L663.83 0.32C669.64 16.62 685.21 28.3 703.51 28.3C721.81 28.3 737.38 16.62 743.2 0.32L1516.63 0.32C1515.58 3.37 1515.01 6.65 1515.01 10.06C1515.01 26.69 1528.49 40.17 1545.12 40.17C1561.75 40.17 1575.24 26.69 1575.24 10.06C1575.24 6.65 1574.66 3.37 1573.62 0.32L1922.74 0.32ZM572.64 200.13C572.64 186.17 561.32 174.85 547.36 174.85C533.4 174.85 522.09 186.17 522.09 200.13C522.09 214.08 533.4 225.4 547.36 225.4C561.32 225.4 572.64 214.08 572.64 200.13Z" />
			<path id="&lt;Path&gt;" class="shp0" d="M1616.61 175.47C1608.1 173.77 1603.34 182.3 1602.31 201.06C1600.78 229.2 1581.63 228.07 1576.02 232.15C1570.4 236.24 1576.53 257.17 1559.93 267.38C1543.34 277.6 1525.46 254.87 1521.89 245.17C1518.31 235.47 1496.36 231.64 1492.27 269.17C1488.19 306.7 1501.21 335.3 1508.1 354.45C1515 373.6 1510.66 403.98 1484.91 400.41C1459.16 396.83 1463.17 366.19 1467.25 353.68C1471.34 341.17 1483.85 306.19 1484.61 280.41C1485.38 254.62 1486.14 221.43 1466.48 224.49C1446.83 227.55 1465.21 257.17 1442.48 257.68C1419.76 258.19 1428.95 238.28 1424.1 221.43C1419.25 204.58 1404.7 204.07 1389.12 206.11C1373.55 208.15 1374.57 233.94 1356.7 237.77C1338.83 241.6 1333.21 226.02 1317.38 220.66C1301.55 215.3 1292.61 228.83 1293.89 246.7C1295.17 264.58 1308.95 281.68 1303.59 297.77C1298.23 313.85 1268.1 306.45 1276.53 278.87C1284.95 251.3 1286.48 248.24 1282.66 222.19C1280.1 204.83 1261.21 197.94 1225.97 201.51" />
			<path id="&lt;Path&gt;" class="shp0" d="M1363.41 322.17C1370.13 337.14 1368.29 362 1352.41 361.31C1336.53 360.63 1332.25 334.42 1338.36 324.21C1342.43 317.4 1345.49 306.96 1347.52 292.89C1353.63 302.42 1358.93 312.18 1363.41 322.17Z" />
			<path id="&lt;Path&gt;" class="shp0" d="M1564 413.28C1572.19 439.86 1569.96 483.95 1550.59 482.75C1531.22 481.54 1526.01 435.02 1533.46 416.9C1538.42 404.82 1542.15 386.3 1544.63 361.33C1552.08 378.24 1558.54 395.56 1564 413.28Z" />
		</g>
	</g>
</svg>