<svg version="1.2" baseProfile="tiny-ps" xmlns="http://www.w3.org/2000/svg" viewBox="0 0 72 58" width="72" height="58">
	<title>Layer 1</title>
	<style>
		tspan { white-space:pre }
		.shp0 { fill: #000000 } 
	</style>
	<g id="Layer 1">
		<path id="&lt;Compound Path&gt;" fill-rule="evenodd" class="shp0" d="M71 7.65C69.98 9.23 68.89 10.52 67.72 11.73C66.68 12.81 65.58 13.83 64.37 14.71C63.95 15.03 63.82 15.36 63.83 15.87C63.92 21.59 62.93 27.1 60.9 32.46C55.9 45.74 43.21 55.41 30.55 57.52C20.18 59.24 10.35 57.81 1.27 52.28C1.1 52.18 0.92 52.06 0.75 51.95C0.72 51.92 0.7 51.88 0.62 51.77C8.4 52.37 15.5 50.71 21.79 45.79C15.15 45.18 10.68 41.92 8.33 35.66C10.46 36.03 12.47 35.99 14.63 35.48C6.27 33.38 3.07 25.9 3.34 21.06C5.27 22.01 7.26 22.64 9.52 22.8C2.92 17.47 1.73 11.04 5.14 3.56C5.55 3.66 5.65 3.91 5.81 4.1C7.84 6.5 10.06 8.63 12.46 10.5C11.97 11.11 11.66 11.89 11.66 12.73C11.66 14.71 13.27 16.32 15.25 16.32C16.65 16.32 17.85 15.5 18.44 14.33C19.97 15.11 21.56 15.8 23.24 16.38C26.85 17.63 30.56 18.31 34.38 18.49C35.19 18.53 35.19 18.52 35.03 17.72C33.55 10.45 38.64 2.74 45.98 1.24C46.57 1.12 47.16 1.03 47.74 0.97C47.8 2.89 49.37 4.44 51.31 4.44C52.95 4.44 54.32 3.33 54.75 1.82C56.44 2.5 58.04 3.55 59.5 5.02C59.84 5.36 60.15 5.28 60.5 5.2C63.24 4.57 65.86 3.59 68.37 2.32C68.55 2.23 68.73 2.15 69.03 2.01C67.97 5.45 65.88 7.95 63.01 9.85C65.74 9.52 68.32 8.75 71 7.65ZM31.18 47.83C29.65 46.57 27.39 46.78 26.13 48.31C24.87 49.83 25.09 52.09 26.61 53.35C28.14 54.61 30.4 54.4 31.66 52.87C32.92 51.35 32.7 49.09 31.18 47.83ZM38.56 29.53C38.56 26.85 36.39 24.68 33.71 24.68C31.03 24.68 28.86 26.85 28.86 29.53C28.86 32.21 31.03 34.38 33.71 34.38C36.39 34.38 38.56 32.21 38.56 29.53ZM57.32 27.1C57.32 25.76 56.23 24.68 54.89 24.68C53.55 24.68 52.47 25.76 52.47 27.1C52.47 28.44 53.55 29.53 54.89 29.53C56.23 29.53 57.32 28.44 57.32 27.1Z" />
	</g>
</svg>